<svg width="390" height="955" viewBox="0 0 390 955" fill="none" xmlns="http://www.w3.org/2000/svg">
<path opacity="0.5" d="M770 145.856C350.465 96.8989 47.2917 -73.2483 -95 35.8435L-92.0638 746.381C277.015 813.716 562.896 709.259 759.379 709.259L770 145.856Z" fill="#441D4F"/>
<path opacity="0.5" d="M770 331.856C350.465 282.899 47.2917 112.752 -95 221.844L-92.0638 932.381C277.015 999.716 562.896 895.259 759.379 895.259L770 331.856Z" fill="#441D4F"/>
<path d="M764.422 155.745C345.15 109.326 52.7815 -24.3377 -89.4209 79.0995V744.484C270.555 780.049 530.995 732.155 764.422 744.484V155.745Z" fill="#441D4F"/>
<path d="M764.421 341.745C345.15 295.326 52.7812 161.662 -89.4211 265.099V930.484C270.555 966.049 530.995 918.155 764.421 930.484V341.745Z" fill="#441D4F"/>
</svg>
