<svg width="354" height="353" viewBox="0 0 354 353" fill="none" xmlns="http://www.w3.org/2000/svg">
<rect width="354" height="353" rx="75" fill="#4D4D4D"/>
<rect width="354" height="353" rx="4" fill="#441D4F"/>
<g filter="url(#filter0_d_21_2)">
<path d="M32.9275 268.992C27.997 268.362 24.5106 263.855 25.1404 258.924L53.8814 33.9275C54.5112 28.997 59.0187 25.5106 63.9492 26.1404L226.411 46.8932C231.341 47.523 234.828 52.0305 234.198 56.961L230.108 88.9809C229.478 93.9114 224.97 97.3978 220.04 96.768L118.963 83.8564C114.032 83.2266 109.525 86.713 108.895 91.6435L105.295 119.827C104.665 124.757 108.151 129.265 113.082 129.895L198.429 140.797C203.36 141.427 206.846 145.934 206.216 150.865L202.126 182.885C201.496 187.815 196.989 191.302 192.058 190.672L106.711 179.769C101.78 179.14 97.2727 182.626 96.6429 187.557L92.8957 216.891C92.2659 221.821 95.7523 226.329 100.683 226.959L201.76 239.87C206.691 240.5 210.177 245.008 209.547 249.938L205.457 281.958C204.827 286.888 200.32 290.375 195.389 289.745L32.9275 268.992Z" fill="#DB8B33"/>
<path d="M52.3935 33.7374L23.6525 258.734C22.9177 264.487 26.9851 269.745 32.7374 270.48L195.199 291.233C200.951 291.968 206.21 287.9 206.945 282.148L211.035 250.128C211.77 244.376 207.702 239.117 201.95 238.382L100.873 225.471C96.7641 224.946 93.8588 221.19 94.3836 217.081L98.1308 187.747C98.6556 183.638 102.412 180.733 106.521 181.257L191.868 192.16C197.62 192.894 202.879 188.827 203.614 183.075L207.704 151.055C208.439 145.303 204.372 140.044 198.619 139.309L113.272 128.407C109.163 127.882 106.258 124.126 106.783 120.017L110.383 91.8335C110.908 87.7248 114.664 84.8195 118.773 85.3443L219.85 98.2559C225.602 98.9907 230.861 94.9232 231.596 89.171L235.686 57.1511C236.421 51.3988 232.353 46.1401 226.601 45.4053L64.1393 24.6525C58.3871 23.9177 53.1283 27.9851 52.3935 33.7374Z" stroke="black" stroke-width="3"/>
</g>
<g filter="url(#filter1_d_21_2)">
<path d="M217.201 315.859C217.412 320.825 213.557 325.022 208.591 325.233L175.909 326.619C170.943 326.829 166.746 322.974 166.535 318.008L158.803 135.696C158.593 130.73 162.448 126.534 167.414 126.323L247.721 122.917C267.776 122.067 283.923 123.812 296.162 128.154C308.401 132.495 317.392 140.039 323.135 150.784C328.877 161.53 332.147 176.29 332.943 195.064C333.695 212.784 331.669 227.346 326.865 238.75C322.053 249.943 313.742 258.431 301.932 264.215C290.123 269.999 274.191 273.317 254.135 274.167L224.495 275.424C219.528 275.635 215.673 279.832 215.884 284.798L217.201 315.859ZM241.245 164.718L219.838 165.626C214.872 165.836 211.017 170.033 211.227 174.999L213.363 225.362C213.574 230.329 217.77 234.184 222.737 233.973L244.144 233.065C259.133 232.429 269.053 229.473 273.905 224.195C278.757 218.917 280.914 209.95 280.378 197.293C279.868 185.269 276.967 176.728 271.677 171.669C266.378 166.399 256.234 164.082 241.245 164.718Z" fill="#DB8B33"/>
<path d="M328.243 239.342L328.248 239.332C333.166 227.655 335.199 212.852 334.442 195C333.641 176.111 330.349 161.1 324.458 150.077C318.526 138.979 309.229 131.197 296.663 126.74C284.172 122.309 267.811 120.564 247.657 121.419L167.35 124.824C161.557 125.07 157.059 129.966 157.305 135.76L165.037 318.072C165.283 323.865 170.178 328.363 175.972 328.117L208.654 326.731C214.448 326.486 218.946 321.59 218.7 315.796L217.383 284.734C217.207 280.596 220.42 277.099 224.558 276.923L254.199 275.666C274.363 274.811 290.525 271.473 302.592 265.563C314.696 259.634 323.278 250.892 328.243 239.342ZM270.62 172.733L270.63 172.743L270.641 172.753C275.517 177.416 278.375 185.484 278.879 197.357C279.411 209.897 277.239 218.352 272.801 223.18C270.622 225.55 267.207 227.5 262.397 228.933C257.596 230.364 251.501 231.252 244.081 231.566L222.673 232.474C218.535 232.65 215.037 229.437 214.862 225.299L212.726 174.935C212.55 170.797 215.763 167.3 219.901 167.124L241.309 166.216C256.249 165.583 265.804 167.944 270.62 172.733Z" stroke="black" stroke-width="3"/>
</g>
<defs>
<filter id="filter0_d_21_2" x="22.0665" y="23.0666" width="226.205" height="280.752" filterUnits="userSpaceOnUse" color-interpolation-filters="sRGB">
<feFlood flood-opacity="0" result="BackgroundImageFix"/>
<feColorMatrix in="SourceAlpha" type="matrix" values="0 0 0 0 0 0 0 0 0 0 0 0 0 0 0 0 0 0 127 0" result="hardAlpha"/>
<feOffset dx="7" dy="7"/>
<feGaussianBlur stdDeviation="2"/>
<feComposite in2="hardAlpha" operator="out"/>
<feColorMatrix type="matrix" values="0 0 0 0 0 0 0 0 0 0 0 0 0 0 0 0 0 0 0.25 0"/>
<feBlend mode="normal" in2="BackgroundImageFix" result="effect1_dropShadow_21_2"/>
<feBlend mode="normal" in="SourceGraphic" in2="effect1_dropShadow_21_2" result="shape"/>
</filter>
<filter id="filter1_d_21_2" x="155.795" y="119.708" width="191.301" height="217.919" filterUnits="userSpaceOnUse" color-interpolation-filters="sRGB">
<feFlood flood-opacity="0" result="BackgroundImageFix"/>
<feColorMatrix in="SourceAlpha" type="matrix" values="0 0 0 0 0 0 0 0 0 0 0 0 0 0 0 0 0 0 127 0" result="hardAlpha"/>
<feOffset dx="7" dy="4"/>
<feGaussianBlur stdDeviation="2"/>
<feComposite in2="hardAlpha" operator="out"/>
<feColorMatrix type="matrix" values="0 0 0 0 0 0 0 0 0 0 0 0 0 0 0 0 0 0 0.25 0"/>
<feBlend mode="normal" in2="BackgroundImageFix" result="effect1_dropShadow_21_2"/>
<feBlend mode="normal" in="SourceGraphic" in2="effect1_dropShadow_21_2" result="shape"/>
</filter>
</defs>
</svg>
