<svg width="374" height="147" viewBox="0 0 374 147" fill="none" xmlns="http://www.w3.org/2000/svg">
<path d="M16.3989 74.4148C16.5305 74.6455 16.4667 74.9034 16.2075 75.1885C15.9448 75.449 15.5009 75.6601 14.8759 75.8216C13.7968 76.1208 12.6949 76.4356 11.5703 76.766C10.4423 77.072 9.29164 77.3936 8.11819 77.7308C8.24229 78.9837 8.41526 80.2297 8.63709 81.469C9.19904 81.391 9.86414 81.2488 10.6324 81.0426C11.4217 80.8085 12.2199 80.5483 13.0268 80.262C13.8338 79.9756 14.6041 79.6944 15.3378 79.4182C16.0925 79.1142 16.7301 78.8638 17.2507 78.6671C17.5092 78.5565 17.7834 78.4686 18.0732 78.4035C18.3596 78.3139 18.6162 78.2783 18.8428 78.2966C19.0906 78.2871 19.2979 78.3455 19.4648 78.4718C19.6318 78.598 19.7339 78.7955 19.7712 79.0643C19.7814 79.1376 19.7111 79.2594 19.5604 79.4297C19.4098 79.6001 19.2119 79.7894 18.9669 79.9977C18.7429 80.1782 18.4945 80.3621 18.2217 80.5494C17.9699 80.7089 17.7391 80.8405 17.5294 80.9444C16.0824 81.6433 14.6514 82.2777 13.2363 82.8477C11.8179 83.3933 10.414 83.7749 9.02476 83.9926C8.22188 84.129 7.58224 84.0061 7.10585 83.624C6.62606 83.2174 6.3146 82.5883 6.17146 81.7365C5.95641 80.5461 5.78853 79.3367 5.66782 78.1083C5.21856 77.9217 4.9634 77.6084 4.90235 77.1686C4.88678 76.6976 5.06258 76.3495 5.42976 76.1242C5.38027 75.4089 5.31857 74.6953 5.24464 73.9833C5.16733 73.247 5.10393 72.5211 5.05444 71.8058C4.7789 71.7942 4.51593 71.6938 4.26551 71.5044C4.03953 71.3117 3.90788 71.0809 3.87058 70.8121C3.84005 70.5922 3.86179 70.39 3.93577 70.2054C4.00637 69.9964 4.16927 69.8244 4.42446 69.6893C4.85067 69.5305 5.37292 69.346 5.99121 69.1356C6.60949 68.9253 7.24169 68.7255 7.8878 68.5362C8.55834 68.3435 9.19393 68.1681 9.79457 68.01C10.4196 67.8485 10.9504 67.7251 11.3868 67.6396C11.8931 67.5195 12.3885 67.5005 12.873 67.5827C13.382 67.6614 13.873 67.8797 14.3461 68.2374C14.4913 68.5659 14.4536 68.8326 14.233 69.0375C14.0368 69.2391 13.7589 69.3897 13.3992 69.4894C13.0395 69.5892 12.6082 69.7113 12.1053 69.8558C11.599 69.9759 11.07 70.1116 10.5182 70.2629C9.99086 70.4108 9.4513 70.5604 8.89953 70.7117C8.3688 70.8352 7.8642 70.9675 7.38573 71.1086C7.39251 71.1575 7.40099 71.2186 7.41116 71.2919C7.44238 71.3374 7.46138 71.3845 7.46816 71.4334C7.50748 72.0754 7.55901 72.7157 7.62275 73.3544C7.6865 73.993 7.75025 74.6316 7.81399 75.2703C8.81641 74.9568 9.84666 74.6644 10.9047 74.393C11.9594 74.0972 12.801 73.8807 13.4294 73.7437C13.9357 73.6236 14.4451 73.6152 14.9575 73.7184C15.4698 73.8216 15.9503 74.0537 16.3989 74.4148ZM28.6057 70.8153C28.5195 70.5533 28.4351 70.3035 28.3523 70.066C28.2695 69.8284 28.1253 69.6866 27.9197 69.6404C27.4873 69.5759 27.0459 69.6247 26.5952 69.7869C26.1446 69.9491 25.739 70.1672 25.3787 70.4414C25.0149 70.6911 24.7172 70.969 24.4858 71.2751C24.251 71.5567 24.1349 71.7969 24.1376 71.9958C24.1152 72.3725 24.2621 72.7132 24.5783 73.0179C24.8945 73.3227 25.3329 73.6104 25.8935 73.8813C26.8199 74.2757 27.7846 74.6772 28.7876 75.0858C29.7906 75.4944 30.6488 75.9356 31.362 76.4094C32.0753 76.8832 32.5893 77.4468 32.9042 78.1004C33.2401 78.7262 33.2964 79.4904 33.073 80.393C32.8958 81.09 32.4696 81.697 31.7943 82.2141C31.1189 82.7312 30.3585 83.173 29.5128 83.5394C28.6638 83.8814 27.8062 84.1623 26.9402 84.3821C26.0708 84.5775 25.3307 84.7176 24.7199 84.8024C24.5733 84.8227 24.3833 84.7993 24.1499 84.7321C23.9374 84.637 23.7233 84.5298 23.5075 84.4103C23.3161 84.2875 23.137 84.1629 22.97 84.0367C22.8241 83.8826 22.7427 83.7445 22.7257 83.6223C22.6647 83.1826 22.8178 82.85 23.1849 82.6247C23.5521 82.3994 23.9434 82.258 24.3587 82.2003C24.9451 82.1189 25.5647 82.008 26.2176 81.8676C26.8916 81.6993 27.5255 81.5117 28.1193 81.3047C28.7098 81.0734 29.2341 80.8138 29.6922 80.5261C30.1503 80.2384 30.4534 79.9099 30.6014 79.5407C30.7317 79.2238 30.5743 78.897 30.1291 78.5604C29.7049 78.1959 29.1447 77.8378 28.4484 77.4862C27.7766 77.1312 27.0453 76.7969 26.2547 76.4833C25.4885 76.1663 24.8251 75.8724 24.2646 75.6016C23.704 75.3308 23.2083 74.9887 22.7773 74.5753C22.343 74.1375 22.0278 73.5712 21.8317 72.8762C21.7191 72.2443 21.7687 71.6149 21.9805 70.9878C22.1923 70.3607 22.4998 69.7951 22.9029 69.2909C23.3272 68.7588 23.826 68.316 24.3995 67.9625C24.973 67.6089 25.5652 67.3898 26.176 67.305C27.2334 67.208 28.1414 67.3808 28.9001 67.8234C29.6555 68.2415 30.1654 68.9551 30.43 69.9643C30.4775 70.3064 30.4554 70.5958 30.3638 70.8327C30.2966 71.0661 30.132 71.226 29.87 71.3121C29.5348 71.4085 29.2487 71.4108 29.0118 71.3192C28.796 71.1997 28.6607 71.0318 28.6057 70.8153ZM43.76 83.9524C43.7729 84.2246 43.6846 84.4858 43.4952 84.7362C43.3093 85.0111 43.0802 85.155 42.8081 85.1678C42.3893 85.2011 42.0496 85.0863 41.7891 84.8237C41.5285 84.561 41.3846 84.3319 41.3575 84.1365C41.2286 83.2081 41.0702 82.2464 40.8823 81.2514C40.691 80.232 40.4841 79.1899 40.2615 78.1251C39.9507 78.218 39.6541 78.2343 39.3718 78.1739C39.1105 78.0856 38.9141 77.9261 38.7824 77.6954C38.5537 77.3038 38.5273 76.9339 38.7031 76.5857C38.8789 76.2376 39.1908 75.883 39.6387 75.522C39.3911 74.6349 39.1451 73.7601 38.9009 72.8975C38.681 72.0315 38.4524 71.1916 38.2149 70.3779C38.1701 70.2347 38.1637 70.0986 38.1956 69.9697C38.2275 69.8407 38.2733 69.7223 38.3331 69.6144C38.3894 69.4821 38.5085 69.3535 38.6904 69.2286C38.9911 69.0623 39.3589 69.1109 39.7939 69.3743C40.2534 69.6342 40.5903 69.9984 40.8047 70.4667C40.9425 70.9207 41.0904 71.448 41.2484 72.0487C41.4276 72.6215 41.603 73.2571 41.7746 73.9554C42.2436 73.5666 42.6726 73.1584 43.0615 72.7309C43.4748 72.2999 43.8115 71.8548 44.0714 71.3953C44.3558 70.9325 44.553 70.4693 44.663 70.0058C44.7696 69.5178 44.7523 69.0346 44.6112 68.5561C44.5047 68.1476 44.2705 67.8065 43.9088 67.533C43.5437 67.235 43.0174 67.1213 42.3299 67.1918C41.7157 67.2522 41.1117 67.3859 40.5179 67.5928C39.9484 67.7964 39.3841 68.0366 38.8249 68.3134C38.29 68.5869 37.7603 68.897 37.2357 69.2438C36.7355 69.5871 36.2475 69.9288 35.7717 70.2688C35.4568 70.5117 35.1266 70.6447 34.7812 70.6678C34.4568 70.663 34.2321 70.5697 34.1073 70.3878C33.8195 69.9296 33.7707 69.4882 33.9608 69.0633C34.1753 68.6351 34.5275 68.2127 35.0176 67.796C35.4445 67.4628 35.9569 67.1177 36.5548 66.7608C37.1738 66.376 37.824 66.0367 38.5054 65.7429C39.2078 65.4213 39.9205 65.173 40.6433 64.9979C41.3871 64.795 42.1096 64.7072 42.8106 64.7344C43.5083 64.7372 44.1513 64.8845 44.7397 65.1764C45.3491 65.4404 45.8724 65.8908 46.3094 66.5274C46.8807 67.5936 47.1348 68.6167 47.0716 69.5967C47.0295 70.5489 46.7817 71.4549 46.3283 72.3148C45.8959 73.1468 45.3207 73.9364 44.6026 74.6835C43.9055 75.4029 43.1878 76.0628 42.4493 76.6634C42.7546 77.9658 43.0216 79.261 43.2502 80.5492C43.4788 81.8373 43.6488 82.9717 43.76 83.9524ZM59.9251 68.8585C59.0503 69.5527 58.0851 70.1349 57.0298 70.6051C55.971 71.0509 54.8064 71.362 53.5359 71.5384C53.7035 72.3867 54.0428 73.0369 54.5538 73.489C55.0614 73.9166 55.6518 74.1334 56.3251 74.1396C56.7228 74.1342 57.112 74.0677 57.4927 73.9402C57.8979 73.8092 58.2613 73.6467 58.583 73.4526C58.9258 73.2307 59.2302 73.0017 59.4962 72.7655C59.7623 72.5294 59.9917 72.2983 60.1845 72.0723C60.3772 71.8463 60.5924 71.692 60.8299 71.6092C61.0641 71.502 61.2456 71.4643 61.3746 71.4962C61.7336 71.5709 61.9066 71.9204 61.8937 72.5448C61.6113 73.3809 61.1426 74.1308 60.4876 74.7945C59.8293 75.4337 59.0583 75.8894 58.1746 76.1615C57.4131 76.4166 56.6018 76.4919 55.7405 76.3873C54.8793 76.2827 54.0748 75.9586 53.3269 75.4149C52.687 74.931 52.1678 74.3307 51.7695 73.614C51.3712 72.8973 51.0794 72.1409 50.8942 71.3448C50.7158 70.5975 50.6768 69.8683 50.7773 69.1571C50.9022 68.4424 51.149 67.798 51.5175 67.2239C51.8827 66.6254 52.3714 66.1093 52.9836 65.6756C53.5958 65.242 54.3383 64.9397 55.211 64.7688C56.2515 64.5496 57.2315 64.6128 58.151 64.9583C59.0706 65.3039 59.7591 65.8682 60.2164 66.6514C60.4763 67.0885 60.5812 67.4849 60.5309 67.8405C60.5051 68.1927 60.3032 68.532 59.9251 68.8585ZM55.3646 66.9514C55.1271 67.0342 54.8702 67.157 54.5939 67.3198C54.3421 67.4793 54.1076 67.6737 53.8905 67.9031C53.6943 68.1047 53.5155 68.3412 53.3539 68.6126C53.2134 68.8562 53.1513 69.1264 53.1676 69.4229C53.5829 69.3653 54.0298 69.2659 54.5083 69.1248C55.0112 68.9802 55.488 68.8269 55.9386 68.6647C56.4103 68.4747 56.8314 68.2793 57.202 68.0785C57.597 67.8742 57.917 67.6679 58.162 67.4596C57.9021 67.0225 57.4967 66.7924 56.9456 66.7693C56.4155 66.7183 55.8885 66.779 55.3646 66.9514ZM67.0496 64.3208C67.1737 64.6771 67.3047 65.0823 67.4424 65.5363C67.6012 65.9625 67.7634 66.4132 67.9289 66.8883C68.0911 67.3389 68.2427 67.8035 68.3839 68.282C68.525 68.7604 68.6505 69.2162 68.7604 69.6492C68.9654 68.9732 69.1898 68.2572 69.4335 67.5012C69.6772 66.7452 69.9538 66.0469 70.2633 65.4062C70.5939 64.7378 70.9519 64.1776 71.3375 63.7256C71.7474 63.2702 72.2211 63.0052 72.7586 62.9306C73.5649 62.8187 74.2775 63.0186 74.8964 63.5304C75.5398 64.0388 76.1057 64.7073 76.5943 65.536C77.1039 66.3369 77.5348 67.1985 77.887 68.1208C78.2391 69.0432 78.5394 69.8606 78.7877 70.5733C79.0259 71.2126 78.8005 71.7419 78.1116 72.1613C77.7933 72.3798 77.5402 72.4398 77.3522 72.3414C77.1642 72.243 77.0495 72.1344 77.0081 72.0156C76.8453 71.7394 76.6152 71.2484 76.318 70.5425C76.0453 69.8333 75.7342 69.1169 75.3847 68.3934C75.0597 67.6666 74.7116 67.0425 74.3404 66.5213C73.9692 66 73.6037 65.7893 73.244 65.889C72.8076 65.9745 72.4625 66.3586 72.2086 67.0413C71.9866 67.5951 71.7609 68.2116 71.5315 68.891C71.3231 69.5425 71.1181 70.2184 70.9165 70.9188C70.7115 71.5947 70.5081 72.2829 70.3065 72.9833C70.126 73.6558 69.9508 74.2778 69.7811 74.8492C69.6338 75.044 69.4309 75.1967 69.1723 75.3073C68.9348 75.3901 68.6748 75.4012 68.3925 75.3408C68.138 75.3014 67.9256 75.2064 67.7552 75.0557C67.5849 74.905 67.4879 74.7442 67.4641 74.5732C66.9797 72.698 66.5068 70.9955 66.0454 69.4657C65.6085 67.9326 65.0931 66.3729 64.4994 64.7868C64.2504 64.2486 64.1527 63.8139 64.2063 63.4828C64.281 63.1237 64.6289 62.9385 65.2498 62.927C66.1253 62.9549 66.7252 63.4195 67.0496 64.3208ZM89.983 77.5361C89.9959 77.8083 89.9077 78.0695 89.7183 78.32C89.5323 78.5948 89.3032 78.7387 89.0311 78.7515C88.6124 78.7848 88.2727 78.67 88.0121 78.4074C87.7515 78.1447 87.6077 77.9156 87.5805 77.7202C87.4516 76.7918 87.2932 75.8301 87.1053 74.8351C86.914 73.8157 86.7071 72.7736 86.4846 71.7088C86.1737 71.8017 85.8772 71.818 85.5948 71.7576C85.3336 71.6693 85.1371 71.5098 85.0055 71.2791C84.7768 70.8875 84.7503 70.5176 84.9261 70.1694C85.1019 69.8213 85.4138 69.4667 85.8618 69.1057C85.6141 68.2186 85.3682 67.3438 85.1239 66.4812C84.9041 65.6152 84.6754 64.7753 84.438 63.9616C84.3932 63.8184 84.3867 63.6823 84.4186 63.5534C84.4506 63.4244 84.4964 63.306 84.5561 63.1981C84.6124 63.0658 84.7316 62.9372 84.9135 62.8123C85.2141 62.6461 85.582 62.6946 86.017 62.958C86.4764 63.2179 86.8133 63.5821 87.0278 64.0504C87.1655 64.5044 87.3134 65.0317 87.4715 65.6324C87.6506 66.2052 87.826 66.8408 87.9977 67.5391C88.4666 67.1503 88.8956 66.7421 89.2845 66.3146C89.6979 65.8836 90.0345 65.4385 90.2945 64.979C90.5789 64.5162 90.7761 64.053 90.886 63.5895C90.9926 63.1015 90.9754 62.6183 90.8342 62.1398C90.7277 61.7313 90.4936 61.3902 90.1319 61.1167C89.7668 60.8187 89.2405 60.705 88.553 60.7755C87.9388 60.8359 87.3348 60.9696 86.7409 61.1765C86.1715 61.3801 85.6071 61.6203 85.0479 61.8971C84.5131 62.1706 83.9834 62.4807 83.4587 62.8275C82.9585 63.1708 82.4705 63.5125 81.9948 63.8525C81.6798 64.0954 81.3496 64.2284 81.0042 64.2515C80.6798 64.2467 80.4552 64.1534 80.3303 63.9715C80.0426 63.5133 79.9938 63.0719 80.1838 62.647C80.3983 62.2188 80.7506 61.7964 81.2406 61.3797C81.6675 61.0465 82.1799 60.7014 82.7779 60.3445C83.3968 59.9597 84.047 59.6204 84.7284 59.3266C85.4309 59.005 86.1435 58.7567 86.8663 58.5816C87.6101 58.3788 88.3326 58.2909 89.0337 58.3181C89.7313 58.3209 90.3744 58.4682 90.9628 58.7601C91.5722 59.0241 92.0954 59.4745 92.5324 60.1111C93.1038 61.1773 93.3579 62.2004 93.2947 63.1804C93.2525 64.1326 93.0047 65.0386 92.5513 65.8985C92.1189 66.7305 91.5437 67.5201 90.8256 68.2672C90.1286 68.9866 89.4108 69.6465 88.6724 70.2471C88.9777 71.5495 89.2446 72.8447 89.4733 74.1329C89.7019 75.421 89.8718 76.5554 89.983 77.5361ZM106.148 62.4422C105.273 63.1364 104.308 63.7186 103.253 64.1888C102.194 64.6346 101.029 64.9457 99.759 65.1221C99.9265 65.9704 100.266 66.6206 100.777 67.0727C101.284 67.5003 101.875 67.7171 102.548 67.7233C102.946 67.7179 103.335 67.6514 103.716 67.5239C104.121 67.3929 104.484 67.2304 104.806 67.0363C105.149 66.8144 105.453 66.5854 105.719 66.3492C105.985 66.1131 106.215 65.882 106.408 65.656C106.6 65.43 106.815 65.2757 107.053 65.1929C107.287 65.0857 107.469 65.048 107.598 65.0799C107.957 65.1546 108.13 65.5041 108.117 66.1285C107.834 66.9646 107.366 67.7145 106.711 68.3782C106.052 69.0174 105.281 69.4731 104.398 69.7452C103.636 70.0003 102.825 70.0756 101.964 69.971C101.102 69.8664 100.298 69.5423 99.55 68.9986C98.91 68.5147 98.3909 67.9144 97.9926 67.1977C97.5942 66.481 97.3025 65.7246 97.1172 64.9285C96.9388 64.1812 96.8998 63.452 97.0003 62.7408C97.1253 62.0261 97.372 61.3817 97.7406 60.8076C98.1057 60.2091 98.5944 59.693 99.2066 59.2593C99.8188 58.8257 100.561 58.5234 101.434 58.3525C102.475 58.1333 103.455 58.1965 104.374 58.542C105.294 58.8876 105.982 59.4519 106.439 60.2351C106.699 60.6722 106.804 61.0686 106.754 61.4242C106.728 61.7764 106.526 62.1157 106.148 62.4422ZM101.588 60.5351C101.35 60.6179 101.093 60.7407 100.817 60.9035C100.565 61.063 100.331 61.2574 100.113 61.4868C99.9173 61.6884 99.7385 61.9249 99.577 62.1963C99.4364 62.44 99.3743 62.7101 99.3906 63.0066C99.8059 62.949 100.253 62.8496 100.731 62.7085C101.234 62.5639 101.711 62.4106 102.162 62.2484C102.633 62.0584 103.054 61.863 103.425 61.6622C103.82 61.4579 104.14 61.2516 104.385 61.0433C104.125 60.6062 103.72 60.3761 103.169 60.353C102.639 60.302 102.112 60.3627 101.588 60.5351ZM116.22 50.8835C116.086 50.4539 116.054 50.0474 116.126 49.664C116.221 49.2771 116.474 49.0304 116.882 48.9239C117.242 48.8242 117.573 48.8778 117.876 49.0848C118.203 49.2885 118.43 49.5807 118.558 49.9614C119.436 52.7033 120.277 55.4381 121.079 58.1657C121.902 60.8655 122.669 63.5232 123.381 66.1389C123.577 66.8339 123.596 67.3293 123.438 67.6252C123.276 67.8966 123.069 68.1121 122.818 68.2716C122.541 68.4344 122.26 68.4734 121.975 68.3886C121.713 68.3003 121.524 68.1025 121.407 67.795L121.34 67.5802L121.198 67.6372C120.432 68.0423 119.613 68.3304 118.741 68.5013C117.864 68.6479 117.006 68.6549 116.166 68.5225C115.326 68.3901 114.551 68.0992 113.841 67.6499C113.152 67.1728 112.614 66.5253 112.227 65.7074C111.379 63.9075 111.508 62.1464 112.614 60.424C113.088 59.7108 113.704 59.0399 114.464 58.4116C115.223 57.7832 116.169 57.241 117.301 56.785L117.94 56.5468L116.22 50.8835ZM114.335 64.4809C114.563 65.0469 114.894 65.4616 115.329 65.725C115.764 65.9883 116.259 66.1438 116.814 66.1913C117.365 66.2144 117.941 66.147 118.541 65.9889C119.142 65.8308 119.722 65.6133 120.281 65.3365L120.596 65.1807L118.674 58.873L117.967 59.158C117.474 59.3758 116.956 59.6842 116.414 60.0833C115.893 60.4545 115.441 60.8783 115.059 61.3547C114.677 61.8311 114.399 62.3427 114.226 62.8897C114.077 63.4333 114.114 63.9637 114.335 64.4809ZM134.661 58.4842C133.786 59.1784 132.821 59.7607 131.766 60.2309C130.707 60.6767 129.542 60.9878 128.272 61.1642C128.439 62.0125 128.779 62.6627 129.29 63.1147C129.797 63.5423 130.388 63.7592 131.061 63.7654C131.459 63.76 131.848 63.6935 132.229 63.5659C132.634 63.435 132.997 63.2725 133.319 63.0784C133.662 62.8565 133.966 62.6275 134.232 62.3913C134.498 62.1551 134.728 61.9241 134.92 61.6981C135.113 61.4721 135.328 61.3177 135.566 61.235C135.8 61.1277 135.982 61.0901 136.111 61.122C136.47 61.1967 136.643 61.5462 136.63 62.1706C136.347 63.0067 135.879 63.7566 135.224 64.4203C134.565 65.0595 133.794 65.5152 132.911 65.7873C132.149 66.0424 131.338 66.1177 130.476 66.0131C129.615 65.9085 128.811 65.5844 128.063 65.0407C127.423 64.5568 126.904 63.9564 126.505 63.2397C126.107 62.523 125.815 61.7666 125.63 60.9705C125.452 60.2233 125.413 59.4941 125.513 58.7828C125.638 58.0682 125.885 57.4238 126.253 56.8497C126.619 56.2511 127.107 55.735 127.72 55.3014C128.332 54.8678 129.074 54.5655 129.947 54.3945C130.987 54.1754 131.967 54.2386 132.887 54.5841C133.807 54.9296 134.495 55.494 134.952 56.2772C135.212 56.7143 135.317 57.1107 135.267 57.4663C135.241 57.8185 135.039 58.1578 134.661 58.4842ZM130.101 56.5772C129.863 56.6599 129.606 56.7828 129.33 56.9456C129.078 57.1051 128.844 57.2995 128.626 57.5289C128.43 57.7304 128.251 57.9669 128.09 58.2384C127.949 58.482 127.887 58.7521 127.903 59.0487C128.319 58.9911 128.766 58.8917 129.244 58.7505C129.747 58.606 130.224 58.4527 130.675 58.2905C131.146 58.1005 131.567 57.9051 131.938 57.7042C132.333 57.5 132.653 57.2937 132.898 57.0854C132.638 56.6483 132.233 56.4182 131.682 56.3951C131.151 56.3441 130.624 56.4048 130.101 56.5772ZM150.531 54.7871C150.702 54.7634 150.887 54.8373 151.085 55.0091C151.283 55.1808 151.476 55.4031 151.663 55.6759C151.847 55.9243 152.022 56.1988 152.188 56.4995C152.351 56.7757 152.485 57.0187 152.588 57.2284C152.833 56.298 152.873 55.4208 152.709 54.5969C152.541 53.7485 152.218 53.0339 151.739 52.4529C151.256 51.8475 150.672 51.4056 149.986 51.1273C149.3 50.849 148.557 50.7902 147.757 50.951C146.982 51.1084 146.242 51.4229 145.535 51.8946C144.825 52.3417 144.221 52.9237 143.723 53.6403C143.246 54.3291 142.899 55.1493 142.682 56.1007C142.462 57.0278 142.446 58.076 142.633 59.2454C142.841 60.3869 143.218 61.3058 143.763 62.0022C144.329 62.6707 144.993 63.1513 145.756 63.4439C146.703 63.8104 147.737 63.9035 148.858 63.723C150.003 63.5392 151.116 63.1232 152.196 62.4752C152.336 62.406 152.5 62.3334 152.689 62.2574C152.877 62.1814 153.047 62.1454 153.197 62.1495C153.368 62.1258 153.511 62.1682 153.625 62.2768C153.764 62.382 153.853 62.569 153.89 62.8377C153.927 63.1065 153.882 63.4116 153.755 63.7529C153.629 64.0943 153.383 64.3898 153.019 64.6395C151.701 65.3704 150.393 65.8134 149.095 65.9688C147.797 66.1241 146.562 66.0215 145.391 65.661C144.141 65.2619 143.048 64.5668 142.114 63.5759C141.2 62.5572 140.569 61.2378 140.219 59.6178C139.952 58.4097 139.957 57.1888 140.234 55.955C140.532 54.6934 141.02 53.5424 141.697 52.502C142.374 51.4617 143.212 50.5859 144.209 49.8747C145.206 49.1636 146.278 48.7283 147.427 48.5689C148.648 48.3993 149.722 48.5117 150.649 48.9061C151.599 49.2971 152.389 49.8723 153.017 50.6318C153.667 51.3634 154.162 52.241 154.504 53.2645C154.869 54.2845 155.078 55.3389 155.129 56.4274C155.152 56.7729 155.144 57.1601 155.104 57.589C155.06 57.9935 154.965 58.3803 154.817 58.7495C154.669 59.1187 154.465 59.4458 154.206 59.7308C153.971 60.0124 153.658 60.1804 153.267 60.2346C152.803 60.2991 152.423 60.165 152.128 59.8324C151.829 59.4754 151.533 59.1307 151.237 58.7981C150.97 58.4866 150.812 58.3342 150.763 58.341C150.69 58.3511 150.637 58.4207 150.605 58.5496C150.461 58.9433 150.295 59.3647 150.108 59.814C149.946 60.2598 149.744 60.6864 149.501 61.0936C149.256 61.4763 148.953 61.8048 148.592 62.0789C148.256 62.3497 147.844 62.519 147.355 62.5868C146.818 62.6614 146.316 62.5443 145.85 62.2355C145.384 61.9267 144.999 61.5815 144.697 61.2001C144.476 60.6829 144.323 60.1189 144.238 59.5081C144.154 58.8973 144.119 58.2919 144.136 57.692C144.152 57.0921 144.222 56.522 144.347 55.9818C144.492 55.4137 144.67 54.9034 144.881 54.4507C144.941 54.3428 145.06 54.2142 145.239 54.0649C145.438 53.8878 145.664 53.7195 145.916 53.56C146.167 53.4006 146.435 53.2638 146.718 53.1498C147.001 53.0359 147.254 52.9758 147.477 52.9697C147.92 53.1075 148.38 53.2803 148.857 53.488C149.334 53.6957 149.744 53.9624 150.088 54.2882C150.151 54.3792 150.201 54.4718 150.239 54.5662C150.274 54.6361 150.31 54.7182 150.348 54.8125L150.531 54.7871ZM148.596 55.9149C148.318 55.7045 148.004 55.5114 147.656 55.3356C147.333 55.1564 147.139 55.1085 147.076 55.192C146.869 55.4947 146.712 55.89 146.606 56.3779C146.496 56.8415 146.427 57.3365 146.401 57.8632C146.371 58.3654 146.388 58.8486 146.453 59.3128C146.514 59.7526 146.624 60.0984 146.783 60.3502C146.821 60.4445 146.889 60.4849 146.987 60.4714C147.137 60.4755 147.316 60.3262 147.523 60.0235C147.726 59.6964 147.925 59.3326 148.118 58.9322C148.333 58.504 148.523 58.0792 148.688 57.6577C148.851 57.2119 148.977 56.8705 149.069 56.6336C149.108 56.5536 149.134 56.4752 149.149 56.3985C149.159 56.2974 149.184 56.2068 149.223 56.1267C148.972 56.1117 148.763 56.0411 148.596 55.9149ZM169.571 49.5293C169.165 49.8347 168.736 50.1557 168.285 50.4923C167.858 50.8255 167.426 51.2092 166.988 51.6435C166.571 52.05 166.177 52.5281 165.805 53.0778C165.454 53.5997 165.153 54.2142 164.903 54.9214C164.543 55.9176 164.345 56.9163 164.31 57.9173C164.271 58.8939 164.292 59.8498 164.372 60.785C164.433 61.2248 164.386 61.6921 164.23 62.1868C164.096 62.6537 163.845 62.9126 163.479 62.9635C163.015 63.0279 162.604 62.8484 162.246 62.4249C161.91 61.9735 161.662 61.5348 161.503 61.1085C160.847 59.4315 160.268 57.7687 159.765 56.1202C159.259 54.4472 158.791 52.7814 158.361 51.1227C158.314 50.7806 158.381 50.5472 158.563 50.4223C158.769 50.2941 159.009 50.2235 159.281 50.2106C159.577 50.1944 159.868 50.2287 160.154 50.3135C160.44 50.3984 160.626 50.5718 160.712 50.8338C160.935 51.7242 161.19 52.6601 161.475 53.6415C161.757 54.5984 162.021 55.421 162.266 56.1092C162.248 55.2649 162.405 54.4213 162.737 53.5784C163.068 52.7356 163.507 51.9524 164.054 51.229C164.626 50.5022 165.284 49.8629 166.029 49.3112C166.799 48.7561 167.601 48.3459 168.436 48.0806C168.795 47.9809 169.101 47.9385 169.352 47.9535C169.603 47.9684 169.786 48.0302 169.901 48.1388C170.015 48.2474 170.055 48.4411 170.019 48.7201C170.007 48.9956 169.858 49.2654 169.571 49.5293ZM181.475 47.7275C182.245 47.8945 182.912 48.2128 183.475 48.6825C184.063 49.1488 184.539 49.7054 184.902 50.3522C185.263 50.9745 185.504 51.6383 185.627 52.3434C185.774 53.0452 185.792 53.715 185.682 54.353C185.508 55.0744 185.259 55.7938 184.935 56.5111C184.612 57.2284 184.217 57.8809 183.75 58.4686C183.284 59.0563 182.731 59.5565 182.091 59.969C181.451 60.3816 180.716 60.6456 179.885 60.7609C178.883 60.8999 178.008 60.7848 177.259 60.4156C176.511 60.0463 175.89 59.5224 175.398 58.8436C174.905 58.1649 174.533 57.3698 174.282 56.4584C174.055 55.5435 173.951 54.6117 173.969 53.6629C173.971 52.9652 174.039 52.2835 174.17 51.6177C174.323 50.9242 174.549 50.3076 174.848 49.7681C175.143 49.2041 175.5 48.7311 175.921 48.3491C176.365 47.9636 176.893 47.7285 177.504 47.6437C177.846 47.5962 178.283 47.6102 178.817 47.6855C179.347 47.7365 179.849 47.8536 180.322 48.0369C180.599 47.6996 180.984 47.5965 181.475 47.7275ZM180.454 50.5961C180.161 50.4624 179.813 50.2866 179.409 50.0687C179.026 49.823 178.701 49.7188 178.432 49.7561C178.139 49.7968 177.864 49.9719 177.608 50.2814C177.377 50.5874 177.177 50.939 177.008 51.336C176.86 51.7052 176.738 52.0832 176.642 52.47C176.546 52.8568 176.489 53.1636 176.471 53.3903C176.449 53.7669 176.461 54.2135 176.508 54.73C176.554 55.2464 176.662 55.7544 176.831 56.2539C176.997 56.729 177.243 57.1556 177.569 57.5336C177.917 57.8839 178.383 58.1055 178.969 58.1985C179.324 58.2487 179.728 58.1928 180.178 58.0306C180.625 57.844 181.049 57.5736 181.448 57.2194C181.871 56.8617 182.245 56.4115 182.568 55.8686C182.915 55.3223 183.155 54.7162 183.286 54.0505C183.432 53.308 183.331 52.575 182.981 51.8515C182.653 51.1002 182.111 50.6027 181.355 50.359C181.201 50.5049 181.038 50.5897 180.867 50.6135C180.696 50.6372 180.558 50.6314 180.454 50.5961ZM198.043 48.8643C197.885 48.9858 197.682 49.0513 197.435 49.0608C197.184 49.0458 196.954 48.9158 196.746 48.6708C196.283 48.212 195.771 48.0216 195.209 48.0996C194.696 48.1708 194.249 48.3574 193.868 48.6594C193.507 48.9336 193.195 49.2881 192.932 49.7231C192.69 50.1303 192.503 50.5796 192.372 51.0709C192.241 51.5623 192.171 52.0452 192.162 52.5196C192.159 53.3916 192.405 54.092 192.902 54.6208C193.399 55.1495 194.087 55.3528 194.967 55.2307C195.679 55.1568 196.454 54.9122 197.293 54.4969C198.153 54.0538 198.94 53.5337 199.654 52.9365C199.975 52.7424 200.281 52.6128 200.571 52.5477C200.861 52.4825 201.125 52.5952 201.365 52.8857C201.664 53.2427 201.658 53.6543 201.35 54.1206C201.037 54.5623 200.598 54.9844 200.031 55.3869C199.468 55.8137 198.863 56.209 198.216 56.5727C197.59 56.9086 196.944 57.1851 196.277 57.4022C195.606 57.5949 194.922 57.6899 194.224 57.6871C193.551 57.6809 192.896 57.5353 192.259 57.2502C191.242 56.7439 190.555 55.9179 190.196 54.7722C189.838 53.6266 189.756 52.4054 189.949 51.1084C190.031 50.6239 190.175 50.1308 190.379 49.6293C190.58 49.1033 190.836 48.6195 191.149 48.1777C191.485 47.7325 191.867 47.3433 192.294 47.0101C192.718 46.6525 193.203 46.3858 193.752 46.2101C194.636 45.938 195.516 45.9153 196.395 46.1421C197.269 46.3444 197.902 46.8667 198.293 47.7089C198.369 47.8976 198.398 48.1053 198.38 48.3319C198.358 48.5342 198.245 48.7117 198.043 48.8643ZM213.896 44.0488C213.991 44.0108 214.136 43.9783 214.331 43.9511C214.523 43.8996 214.708 43.8863 214.886 43.9115C215.085 43.9088 215.252 43.9478 215.388 44.0286C215.544 44.0815 215.644 44.1674 215.685 44.2861C215.774 44.5726 215.763 44.8481 215.65 45.1128C215.559 45.3496 215.354 45.5773 215.035 45.7958C214.168 46.3645 213.272 46.9993 212.349 47.7003C211.422 48.3769 210.634 48.9842 209.987 49.5223C210.467 49.7545 211.014 50.0148 211.627 50.3033C212.264 50.5884 212.917 50.8962 213.585 51.2268C214.25 51.5329 214.92 51.8757 215.596 52.2551C216.268 52.6101 216.903 52.9702 217.501 53.3353C218.048 53.6829 218.186 54.0497 217.916 54.4358C217.793 54.6272 217.565 54.7833 217.234 54.9041C216.926 55.0215 216.616 55.0272 216.302 54.9213C215.727 54.7272 215.097 54.4909 214.411 54.2126C213.721 53.9099 213.019 53.6088 212.305 53.3095C211.588 52.9857 210.885 52.6725 210.195 52.3697C209.527 52.0392 208.912 51.7385 208.352 51.4676C208.568 52.3092 208.772 53.1525 208.964 53.9974C209.181 54.839 209.385 55.6822 209.577 56.5272C209.788 56.9711 209.828 57.3515 209.698 57.6684C209.568 57.9853 209.305 58.1587 208.911 58.1885C208.486 58.1729 208.158 58.0565 207.929 57.8393C207.696 57.5977 207.502 57.276 207.346 56.8742C207.061 55.8928 206.725 54.7316 206.34 53.3905C205.979 52.046 205.599 50.6544 205.2 49.2156C204.801 47.7767 204.407 46.3746 204.019 45.0091C203.654 43.6402 203.324 42.4284 203.028 41.3737C202.932 41.0384 202.844 40.677 202.766 40.2895C202.708 39.8741 202.805 39.5867 203.057 39.4273C203.403 39.2298 203.794 39.2627 204.229 39.5261C204.66 39.765 205.016 40.1763 205.296 40.76C205.648 41.8568 206.013 43.0513 206.392 44.3435C206.77 45.6357 207.159 47.0012 207.558 48.44C208.006 48.079 208.524 47.6834 209.111 47.2531C209.72 46.7951 210.32 46.3632 210.911 45.9574C211.524 45.5237 212.092 45.1335 212.617 44.7868C213.141 44.44 213.568 44.194 213.896 44.0488ZM229.326 45.3436C228.451 46.0378 227.486 46.6201 226.431 47.0903C225.372 47.5361 224.207 47.8472 222.937 48.0235C223.104 48.8719 223.444 49.5221 223.955 49.9741C224.462 50.4017 225.053 50.6186 225.726 50.6248C226.124 50.6194 226.513 50.5529 226.894 50.4253C227.299 50.2944 227.662 50.1319 227.984 49.9378C228.327 49.7159 228.631 49.4868 228.897 49.2507C229.163 49.0145 229.393 48.7835 229.585 48.5575C229.778 48.3315 229.993 48.1771 230.231 48.0943C230.465 47.9871 230.647 47.9495 230.776 47.9814C231.135 48.0561 231.308 48.4056 231.295 49.03C231.012 49.8661 230.544 50.616 229.889 51.2797C229.23 51.9189 228.459 52.3746 227.576 52.6467C226.814 52.9018 226.003 52.9771 225.142 52.8725C224.28 52.7679 223.476 52.4438 222.728 51.9001C222.088 51.4162 221.569 50.8158 221.171 50.0991C220.772 49.3824 220.48 48.626 220.295 47.8299C220.117 47.0827 220.078 46.3535 220.178 45.6422C220.303 44.9276 220.55 44.2832 220.919 43.7091C221.284 43.1105 221.772 42.5944 222.385 42.1608C222.997 41.7272 223.739 41.4249 224.612 41.2539C225.652 41.0348 226.632 41.098 227.552 41.4435C228.472 41.789 229.16 42.3534 229.617 43.1366C229.877 43.5737 229.982 43.97 229.932 44.3257C229.906 44.6779 229.704 45.0172 229.326 45.3436ZM224.766 43.4365C224.528 43.5193 224.271 43.6421 223.995 43.805C223.743 43.9645 223.509 44.1589 223.291 44.3883C223.095 44.5898 222.916 44.8263 222.755 45.0978C222.614 45.3414 222.552 45.6115 222.569 45.9081C222.984 45.8504 223.431 45.7511 223.909 45.6099C224.412 45.4654 224.889 45.3121 225.34 45.1499C225.811 44.9599 226.232 44.7645 226.603 44.5636C226.998 44.3594 227.318 44.1531 227.563 43.9447C227.303 43.5077 226.898 43.2776 226.347 43.2544C225.817 43.2035 225.29 43.2642 224.766 43.4365ZM242.74 42.2489C243.201 42.1601 243.68 42.2056 244.178 42.3855C244.676 42.5654 244.961 42.9118 245.032 43.4249C245.041 43.8471 244.846 44.148 244.448 44.3278C244.07 44.4798 243.76 44.5728 243.515 44.6067C243.027 44.6745 242.503 44.7597 241.944 44.8621C241.386 44.9645 240.817 45.0809 240.237 45.2112C240.3 46.0242 240.357 46.7884 240.406 47.5037C240.48 48.2157 240.544 48.8543 240.597 49.4196C240.647 49.9605 240.696 50.402 240.744 50.7441C240.791 51.0861 240.829 51.2677 240.857 51.2887C241.381 51.1164 241.933 50.8778 242.513 50.5732C243.114 50.2407 243.702 49.8976 244.275 49.5441C244.87 49.1627 245.44 48.7848 245.986 48.4102C246.552 48.0078 247.086 47.6349 247.586 47.2915C247.813 47.1354 248.028 47.0683 248.23 47.09C248.457 47.1083 248.607 47.1996 248.679 47.3639C248.766 47.6258 248.775 47.9608 248.707 48.3686C248.639 48.7765 248.468 49.1613 248.195 49.523C247.869 49.8671 247.428 50.277 246.871 50.7527C246.336 51.2005 245.75 51.643 245.113 52.08C244.476 52.517 243.822 52.9191 243.151 53.2862C242.501 53.6255 241.91 53.8569 241.38 53.9803C240.584 54.1656 239.942 54.0305 239.456 53.575C238.969 53.1196 238.647 52.5044 238.49 51.7293C238.332 50.9543 238.195 50.052 238.077 49.0224C237.983 47.9895 237.881 46.8954 237.771 45.7403C237.313 45.8536 236.868 45.9652 236.435 46.0752C236.023 46.1572 235.625 46.2499 235.241 46.353C234.923 46.3971 234.559 46.373 234.147 46.2806C233.761 46.1849 233.538 45.9294 233.481 45.514C233.46 45.3674 233.494 45.1635 233.583 44.9022C233.671 44.6409 233.914 44.4204 234.312 44.2405C235.29 43.9305 236.382 43.6296 237.586 43.3378C237.5 42.1793 237.432 41.0558 237.38 39.9672C237.329 38.8786 237.278 37.8894 237.23 36.9997C237.213 36.7031 237.263 36.4347 237.379 36.1945C237.495 35.9542 237.639 35.8222 237.81 35.7985C238.222 35.7164 238.628 35.7721 239.029 35.9655C239.45 36.1312 239.681 36.3606 239.722 36.6538C239.739 37.498 239.772 38.4522 239.82 39.5164C239.893 40.5772 239.969 41.6624 240.048 42.772C240.53 42.6553 240.991 42.5664 241.431 42.5054C241.891 42.4165 242.328 42.331 242.74 42.2489ZM252.582 38.8282C252.661 39.2157 252.766 39.6992 252.896 40.2788C253.047 40.8306 253.203 41.419 253.365 42.0441C253.523 42.6447 253.681 43.2454 253.839 43.846C254.022 44.4433 254.185 44.9933 254.33 45.4962C254.524 44.9214 254.762 44.216 255.045 43.3799C255.327 42.5438 255.627 41.7426 255.944 40.9764C256.282 40.1824 256.637 39.5105 257.009 38.9608C257.402 38.3833 257.781 38.0691 258.148 38.0182C258.539 37.964 258.92 38.1103 259.292 38.4571C259.685 38.7761 260.041 39.1874 260.36 39.691C260.679 40.1946 260.966 40.7399 261.222 41.327C261.502 41.9107 261.736 42.4261 261.922 42.8734C261.976 42.5422 262.049 42.171 262.141 41.7597C262.255 41.3206 262.368 40.8815 262.481 40.4424C262.616 39.9755 262.764 39.5191 262.926 39.0733C263.113 38.624 263.319 38.2219 263.543 37.867C263.813 37.4808 264.122 37.189 264.468 36.9916C264.81 36.7697 265.067 36.6468 265.238 36.6231C265.458 36.5926 265.725 36.6303 266.039 36.7362C266.373 36.8142 266.714 36.9412 267.063 37.117C267.411 37.2928 267.741 37.5208 268.054 37.8011C268.388 38.0536 268.662 38.3268 268.878 38.6207C269.311 39.2329 269.68 39.9163 269.984 40.6711C270.312 41.4224 270.575 42.1455 270.771 42.8405C270.967 43.5355 271.116 44.1622 271.219 44.7208C271.342 45.2515 271.431 45.6251 271.486 45.8416C271.53 46.1592 271.528 46.4087 271.478 46.5899C271.425 46.7466 271.308 46.8874 271.126 47.0123C270.874 47.1718 270.649 47.2529 270.45 47.2555C270.248 47.2338 270.077 47.1703 269.938 47.0651C269.799 46.9599 269.682 46.8391 269.589 46.7027C269.492 46.5419 269.422 46.402 269.381 46.2833C269.23 45.7315 269.064 45.1692 268.885 44.5964C268.731 44.0202 268.567 43.4701 268.395 42.9462C268.219 42.3978 268.026 41.9017 267.815 41.4578C267.625 40.9861 267.431 40.5772 267.233 40.2311C267.171 40.1401 267.068 40.0298 266.926 39.9002C266.804 39.7427 266.66 39.6009 266.493 39.4746C266.351 39.345 266.212 39.2398 266.076 39.159C265.94 39.0782 265.846 39.029 265.794 39.0114C265.55 39.0453 265.325 39.313 265.121 39.8145C264.913 40.2916 264.731 40.8648 264.575 41.5339C264.419 42.2031 264.28 42.9072 264.159 43.6462C264.058 44.3575 263.993 44.9642 263.963 45.4664C264.051 46.1017 263.995 46.5951 263.795 46.9466C263.591 47.2737 263.355 47.4559 263.086 47.4932C262.818 47.5305 262.511 47.4735 262.166 47.3221C261.843 47.1429 261.613 46.9257 261.478 46.6705C261.277 46.3 261.057 45.8822 260.819 45.4173C260.58 44.9524 260.327 44.477 260.06 43.991C259.818 43.5017 259.565 43.0263 259.302 42.5648C259.063 42.0998 258.831 41.6838 258.606 41.3166C258.328 41.8283 258.057 42.3889 257.793 42.9983C257.554 43.6043 257.316 44.2226 257.079 44.8531C256.868 45.4801 256.656 46.1072 256.444 46.7343C256.253 47.3335 256.066 47.87 255.883 48.3437C255.749 48.6362 255.6 48.906 255.435 49.153C255.267 49.3756 255.048 49.5055 254.779 49.5428C254.584 49.57 254.364 49.5133 254.121 49.3728C253.874 49.2078 253.634 49.0046 253.401 48.7629C253.168 48.5213 252.943 48.2414 252.724 47.923C252.53 47.6013 252.373 47.2745 252.252 46.9427C251.911 45.9192 251.58 44.7946 251.261 43.5689C250.962 42.3154 250.669 41.0985 250.38 39.9183C250.298 39.5063 250.295 39.1208 250.369 38.7618C250.465 38.375 250.7 38.0934 251.074 37.9169C251.479 37.786 251.805 37.803 252.052 37.9679C252.299 38.1328 252.476 38.4196 252.582 38.8282ZM283.351 32.8014C283.544 33.4719 283.719 34.1947 283.877 34.9698C284.055 35.717 284.211 36.4798 284.344 37.2583C284.501 38.0333 284.631 38.7874 284.732 39.5203C284.834 40.2533 284.913 40.9147 284.97 41.5044C285.827 41.9334 286.357 42.3454 286.561 42.7404C286.79 43.132 286.865 43.4951 286.787 43.8297C286.702 44.2898 286.465 44.5593 286.078 44.6379C285.711 44.6888 285.265 44.6138 284.739 44.4129C284.431 44.7047 284.077 45.0277 283.678 45.3819C283.276 45.7117 282.849 46.0449 282.397 46.3815C281.943 46.6937 281.485 46.9814 281.023 47.2447C280.562 47.508 280.128 47.7051 279.723 47.836C278.958 48.0667 278.229 48.0185 277.536 47.6913C276.868 47.3608 276.366 46.7954 276.031 45.9952C275.806 45.4536 275.69 44.8845 275.682 44.288C275.67 43.667 275.774 43.0674 275.992 42.4892C276.208 41.8865 276.529 41.3314 276.957 40.8238C277.409 40.3128 277.96 39.8877 278.61 39.5484C278.771 39.4513 278.994 39.358 279.281 39.2685C279.592 39.1755 279.908 39.1192 280.229 39.0996C280.571 39.0521 280.921 39.0657 281.28 39.1404C281.639 39.215 281.986 39.3786 282.32 39.6311C282.262 39.2158 282.187 38.7655 282.095 38.2802C282.024 37.7671 281.94 37.2557 281.844 36.746C281.749 36.2364 281.646 35.765 281.536 35.332C281.447 34.8712 281.356 34.4854 281.263 34.1745C281.164 33.8148 280.986 33.6153 280.732 33.5759C280.499 33.5087 280.219 33.5599 279.894 33.7295C279.335 34.0064 278.703 34.4801 278 35.1505C277.296 35.821 276.634 36.523 276.013 37.2566C275.824 37.5071 275.581 37.6404 275.284 37.6567C275.012 37.6695 274.765 37.5918 274.542 37.4235C274.32 37.2552 274.179 37.0505 274.121 36.8096C274.059 36.5442 274.118 36.2497 274.297 35.926C274.651 35.4285 275.053 34.9121 275.501 34.3767C275.95 33.8412 276.43 33.3513 276.941 32.9068C277.449 32.4379 277.979 32.0405 278.531 31.7148C279.084 31.3891 279.651 31.1733 280.234 31.0675C281.086 30.9244 281.773 31.0282 282.295 31.3792C282.813 31.7056 283.165 32.1797 283.351 32.8014ZM280.194 41.271C279.886 41.3883 279.566 41.5946 279.234 41.8898C278.922 42.1572 278.644 42.4823 278.398 42.865C278.173 43.2199 278.017 43.6153 277.928 44.051C277.86 44.4588 277.914 44.8498 278.09 45.2237C278.16 45.3635 278.273 45.4599 278.429 45.5129C278.611 45.5624 278.796 45.5492 278.984 45.4732C279.554 45.2696 280.181 44.946 280.867 44.5022C281.573 44.0305 282.117 43.5565 282.5 43.0801C282.479 42.9335 282.38 42.7605 282.203 42.5609C282.023 42.3369 281.82 42.1286 281.594 41.9358C281.364 41.7186 281.116 41.5415 280.847 41.4044C280.604 41.2639 280.386 41.2194 280.194 41.271ZM294.606 29.8196C294.591 30.0707 294.439 30.2288 294.149 30.294C293.859 30.3591 293.617 30.4052 293.421 30.4324C292.814 30.5416 292.187 30.6908 291.541 30.8801C290.919 31.066 290.268 31.3059 289.586 31.5997C289.307 31.7381 288.984 31.7456 288.618 31.622C288.252 31.4985 287.997 31.1853 287.853 30.6824C287.826 30.4869 287.877 30.3179 288.006 30.1754C288.136 30.0329 288.292 29.8992 288.474 29.7743C288.771 29.5837 289.133 29.4089 289.559 29.2502C289.982 29.0669 290.41 28.9204 290.843 28.8105C291.3 28.6972 291.738 28.6239 292.157 28.5907C292.572 28.533 292.919 28.5222 293.198 28.5582C293.606 28.6261 293.937 28.7669 294.191 28.9807C294.469 29.1911 294.608 29.4708 294.606 29.8196ZM295.457 42.1406C295.683 42.5078 295.827 42.9235 295.892 43.3877C295.977 43.8241 295.898 44.1464 295.653 44.3548C295.341 44.6221 294.973 44.6608 294.548 44.4707C294.123 44.2807 293.784 43.9915 293.531 43.6033C293.191 43.1276 292.897 42.5334 292.649 41.8207C292.397 41.0837 292.184 40.3537 292.009 39.631C291.833 38.9082 291.69 38.2308 291.577 37.599C291.489 36.9637 291.423 36.4873 291.379 36.1697C291.356 35.8242 291.409 35.4931 291.54 35.1761C291.67 34.8592 291.866 34.6576 292.128 34.5715C292.571 34.5349 292.954 34.6934 293.277 35.047C293.597 35.3761 293.784 35.8234 293.837 36.3887C293.898 36.8285 293.978 37.3155 294.077 37.8496C294.176 38.3837 294.3 38.9144 294.448 39.4418C294.596 39.9691 294.754 40.4826 294.923 40.9821C295.089 41.4571 295.267 41.8433 295.457 42.1406ZM301.381 26.6379C301.873 29.2841 302.464 32.0161 303.154 34.834C303.84 37.6275 304.534 40.2954 305.236 42.8377C305.459 43.9026 305.242 44.493 304.585 44.609C304.439 44.6293 304.285 44.6008 304.125 44.5234C303.962 44.4216 303.807 44.2937 303.661 44.1396C303.515 43.9856 303.368 43.8193 303.218 43.6408C303.093 43.4589 303.009 43.2963 302.964 43.1531C302.595 41.9342 302.229 40.6403 301.865 39.2714C301.5 37.9025 301.148 36.5319 300.808 35.1596C300.489 33.7595 300.188 32.3943 299.904 31.0641C299.619 29.7339 299.387 28.5085 299.206 27.388C299.174 26.7948 299.192 26.2943 299.26 25.8864C299.324 25.4541 299.553 25.2231 299.948 25.1932C300.367 25.16 300.683 25.2903 300.899 25.5842C301.135 25.8503 301.296 26.2015 301.381 26.6379ZM312.402 41.9924C312.646 42.855 312.35 43.4067 311.511 43.6476C311.078 43.7575 310.695 43.6862 310.361 43.4337C310.052 43.1778 309.831 42.8473 309.7 42.4421C309.566 42.0125 309.531 41.5816 309.596 41.1493C309.685 40.7136 309.921 40.4441 310.305 40.341C310.784 40.1999 311.225 40.3255 311.628 40.7178C312.027 41.0856 312.286 41.5105 312.402 41.9924ZM325.331 31.1953C325.173 31.3167 324.971 31.3822 324.723 31.3917C324.472 31.3767 324.242 31.2468 324.034 31.0018C323.572 30.5429 323.059 30.3525 322.498 30.4305C321.984 30.5018 321.537 30.6884 321.156 30.9903C320.795 31.2645 320.483 31.6191 320.22 32.0541C319.978 32.4613 319.791 32.9105 319.66 33.4019C319.529 33.8932 319.459 34.3761 319.45 34.8505C319.447 35.7226 319.693 36.423 320.19 36.9517C320.687 37.4804 321.375 37.6837 322.255 37.5616C322.967 37.4877 323.742 37.2431 324.581 36.8278C325.441 36.3847 326.228 35.8646 326.942 35.2674C327.263 35.0733 327.569 34.9437 327.859 34.8786C328.149 34.8135 328.414 34.9262 328.653 35.2166C328.952 35.5736 328.947 35.9853 328.638 36.4515C328.325 36.8933 327.886 37.3154 327.319 37.7178C326.756 38.1446 326.151 38.5399 325.504 38.9036C324.878 39.2395 324.232 39.516 323.565 39.7332C322.894 39.9258 322.21 40.0208 321.512 40.018C320.839 40.0119 320.184 39.8663 319.547 39.5812C318.53 39.0748 317.843 38.2488 317.484 37.1032C317.126 35.9576 317.044 34.7363 317.237 33.4394C317.319 32.9548 317.463 32.4618 317.667 31.9602C317.868 31.4343 318.124 30.9504 318.437 30.5086C318.773 30.0634 319.155 29.6742 319.582 29.341C320.006 28.9834 320.492 28.7167 321.04 28.541C321.924 28.2689 322.804 28.2463 323.683 28.473C324.557 28.6753 325.19 29.1976 325.581 30.0399C325.657 30.2285 325.686 30.4362 325.668 30.6629C325.646 30.8651 325.534 31.0426 325.331 31.1953ZM339.423 25.8024C340.193 25.9694 340.86 26.2878 341.424 26.7575C342.011 27.2237 342.487 27.7803 342.851 28.4271C343.211 29.0495 343.453 29.7132 343.575 30.4184C343.723 31.1201 343.741 31.79 343.63 32.4279C343.456 33.1493 343.208 33.8687 342.884 34.586C342.56 35.3034 342.165 35.9559 341.699 36.5436C341.232 37.1313 340.679 37.6314 340.039 38.044C339.399 38.4566 338.664 38.7205 337.833 38.8358C336.831 38.9749 335.956 38.8598 335.208 38.4905C334.459 38.1213 333.839 37.5973 333.346 36.9186C332.853 36.2399 332.481 35.4448 332.23 34.5333C332.004 33.6184 331.899 32.6866 331.917 31.7378C331.92 31.0402 331.987 30.3584 332.119 29.6927C332.271 28.9991 332.497 28.3825 332.796 27.843C333.091 27.2791 333.449 26.8061 333.869 26.424C334.313 26.0385 334.841 25.8034 335.452 25.7186C335.794 25.6712 336.232 25.6851 336.765 25.7605C337.295 25.8114 337.797 25.9285 338.271 26.1118C338.548 25.7745 338.932 25.6714 339.423 25.8024ZM338.402 28.6711C338.109 28.5374 337.761 28.3616 337.357 28.1437C336.975 27.898 336.649 27.7938 336.38 27.8311C336.087 27.8718 335.813 28.0468 335.557 28.3563C335.325 28.6624 335.125 29.0139 334.956 29.4109C334.808 29.7801 334.686 30.1581 334.59 30.5449C334.495 30.9318 334.438 31.2385 334.419 31.4652C334.397 31.8419 334.409 32.2884 334.456 32.8049C334.503 33.3214 334.61 33.8294 334.779 34.3289C334.945 34.804 335.191 35.2305 335.517 35.6086C335.865 35.9588 336.331 36.1804 336.917 36.2734C337.273 36.3237 337.676 36.2677 338.126 36.1056C338.574 35.919 338.997 35.6485 339.396 35.2943C339.82 34.9367 340.193 34.4864 340.516 33.9435C340.863 33.3972 341.103 32.7911 341.235 32.1254C341.381 31.3829 341.279 30.65 340.93 29.9265C340.601 29.1752 340.059 28.6776 339.303 28.4339C339.149 28.5799 338.986 28.6647 338.815 28.6884C338.644 28.7122 338.506 28.7064 338.402 28.6711ZM349.425 25.3853C349.504 25.7728 349.608 26.2564 349.738 26.836C349.89 27.3877 350.046 27.9762 350.207 28.6012C350.366 29.2019 350.524 29.8025 350.682 30.4031C350.864 31.0004 351.028 31.5505 351.172 32.0534C351.366 31.4785 351.605 30.7731 351.887 29.937C352.169 29.1009 352.469 28.2997 352.786 27.5335C353.124 26.7395 353.479 26.0677 353.851 25.518C354.244 24.9404 354.624 24.6263 354.99 24.5754C355.381 24.5211 355.763 24.6674 356.135 25.0142C356.527 25.3332 356.883 25.7445 357.202 26.2481C357.521 26.7517 357.809 27.2971 358.064 27.8841C358.345 28.4678 358.578 28.9833 358.765 29.4305C358.818 29.0993 358.891 28.7281 358.984 28.3169C359.097 27.8778 359.21 27.4387 359.324 26.9996C359.458 26.5327 359.607 26.0763 359.769 25.6304C359.955 25.1811 360.161 24.779 360.386 24.4241C360.656 24.038 360.964 23.7462 361.31 23.5487C361.653 23.3268 361.91 23.204 362.081 23.1802C362.301 23.1497 362.567 23.1874 362.881 23.2933C363.216 23.3714 363.557 23.4983 363.905 23.6741C364.253 23.8499 364.584 24.078 364.897 24.3583C365.23 24.6108 365.505 24.884 365.72 25.1778C366.154 25.79 366.523 26.4735 366.826 27.2282C367.155 27.9795 367.417 28.7026 367.613 29.3976C367.809 30.0926 367.959 30.7193 368.061 31.2779C368.185 31.8086 368.274 32.1822 368.329 32.3987C368.373 32.7164 368.37 32.9658 368.32 33.147C368.268 33.3038 368.15 33.4446 367.968 33.5694C367.716 33.7289 367.491 33.81 367.292 33.8127C367.09 33.7909 366.919 33.7275 366.78 33.6223C366.641 33.5171 366.525 33.3963 366.431 33.2598C366.334 33.099 366.265 32.9592 366.223 32.8404C366.072 32.2886 365.907 31.7263 365.728 31.1535C365.573 30.5773 365.41 30.0273 365.237 29.5033C365.061 28.9549 364.868 28.4588 364.657 28.0149C364.467 27.5432 364.273 27.1343 364.076 26.7882C364.013 26.6972 363.911 26.587 363.768 26.4573C363.647 26.2999 363.503 26.158 363.336 26.0318C363.193 25.9021 363.054 25.7969 362.918 25.7161C362.783 25.6354 362.689 25.5862 362.637 25.5685C362.392 25.6024 362.168 25.8701 361.964 26.3717C361.756 26.8488 361.574 27.4219 361.418 28.091C361.262 28.7602 361.123 29.4643 361.001 30.2034C360.901 30.9146 360.836 31.5213 360.806 32.0236C360.894 32.6588 360.838 33.1522 360.638 33.5037C360.434 33.8308 360.198 34.013 359.929 34.0503C359.66 34.0876 359.353 34.0306 359.009 33.8792C358.685 33.7 358.456 33.4829 358.321 33.2277C358.12 32.8571 357.9 32.4394 357.661 31.9745C357.422 31.5095 357.169 31.0341 356.903 30.5482C356.66 30.0588 356.408 29.5834 356.144 29.1219C355.906 28.657 355.673 28.2409 355.448 27.8738C355.171 28.3855 354.9 28.946 354.636 29.5554C354.396 30.1615 354.158 30.7797 353.922 31.4102C353.71 32.0373 353.498 32.6643 353.287 33.2914C353.096 33.8907 352.909 34.4271 352.726 34.9008C352.592 35.1933 352.442 35.4631 352.278 35.7101C352.109 35.9327 351.891 36.0627 351.622 36.1C351.426 36.1271 351.207 36.0704 350.963 35.9299C350.716 35.765 350.476 35.5617 350.244 35.3201C350.011 35.0784 349.785 34.7985 349.567 34.4802C349.373 34.1585 349.215 33.8317 349.094 33.4998C348.753 32.4763 348.423 31.3517 348.103 30.126C347.805 28.8725 347.511 27.6556 347.223 26.4754C347.141 26.0634 347.137 25.678 347.212 25.319C347.307 24.9321 347.542 24.6505 347.916 24.4741C348.321 24.3431 348.647 24.3601 348.895 24.525C349.142 24.69 349.318 24.9767 349.425 25.3853Z" fill="#9D9D9D"/>
<path d="M12.881 122.382C12.9295 122.749 12.8864 123.036 12.7515 123.243C12.6396 123.423 12.4852 123.52 12.2883 123.532C11.7467 123.568 11.358 123.482 11.1221 123.274C10.8846 123.043 10.6923 122.746 10.5453 122.385C10.3544 121.73 10.1858 121.036 10.0394 120.304C9.89302 119.572 9.77203 118.851 9.67646 118.14C8.74908 118.324 7.90786 118.502 7.15279 118.675C6.39612 118.823 5.88401 118.93 5.61644 118.997C5.20278 119.098 4.77953 119.051 4.3467 118.857C3.93688 118.637 3.69537 118.343 3.62217 117.977C3.5998 117.633 3.77834 117.337 4.1578 117.09C4.56187 116.841 4.93221 116.644 5.26883 116.498C5.72852 116.345 6.32439 116.195 7.05645 116.049C7.7869 115.878 8.57969 115.715 9.43482 115.561C9.31912 114.159 9.26383 112.927 9.26896 111.864C9.29711 110.774 9.36074 110.041 9.45984 109.664C9.52155 109.091 9.73541 108.768 10.1014 108.695C10.4659 108.597 10.7382 108.604 10.9185 108.716C11.125 108.851 11.3093 109.024 11.4714 109.236C11.6565 109.422 11.7407 109.577 11.7241 109.702C11.6864 110.644 11.6847 111.571 11.7192 112.483C11.7768 113.369 11.8474 114.267 11.9312 115.176C12.7895 115.071 13.624 114.98 14.4347 114.902C15.2454 114.825 15.9846 114.789 16.6524 114.795C17.4433 114.793 17.8234 115.127 17.7927 115.797C17.7872 116.094 17.6194 116.364 17.2892 116.608C16.982 116.826 16.6199 116.96 16.2031 117.012C15.6401 117.098 15.0165 117.2 14.332 117.319C13.646 117.413 12.9247 117.534 12.168 117.682C12.2684 118.466 12.381 119.25 12.506 120.033C12.631 120.816 12.756 121.599 12.881 122.382ZM20.8605 116.969C21.4609 115.175 22.1998 113.422 23.0774 111.709C23.9795 109.994 25.0409 108.257 26.2614 106.496C26.4701 106.285 26.7921 106.104 27.2271 105.952C27.6852 105.774 28.0799 105.76 28.411 105.912C28.4635 105.958 28.5028 105.992 28.529 106.015C28.5536 106.014 28.5798 106.037 28.6076 106.085C28.6275 106.009 28.6556 105.871 28.692 105.671C28.7959 105.368 28.9531 105.123 29.1634 104.936C29.3722 104.725 29.6143 104.647 29.8899 104.704C30.3163 104.799 30.6122 104.978 30.7774 105.239C30.9657 105.474 31.0595 105.777 31.0589 106.148C30.8546 107.57 30.6896 109.027 30.564 110.518C30.4613 111.983 30.4028 113.557 30.3884 115.238C31.1157 115.018 31.8691 114.821 32.6488 114.647C33.4269 114.448 34.2427 114.259 35.0962 114.08C35.2423 114.046 35.4023 114.035 35.5762 114.049C35.7748 114.061 35.9618 114.086 36.1373 114.124C36.3374 114.16 36.4899 114.224 36.5947 114.316C36.7242 114.407 36.7937 114.526 36.8033 114.674C36.8257 115.018 36.6495 115.351 36.2749 115.672C35.9002 115.993 35.4822 116.218 35.0209 116.347C34.2428 116.545 33.4779 116.756 32.726 116.978C31.9741 117.199 31.223 117.434 30.4728 117.68C30.5089 118.617 30.5589 119.578 30.6228 120.562C30.7113 121.545 30.8277 122.576 30.9719 123.654C31.0156 123.948 30.9324 124.188 30.722 124.375C30.5363 124.56 30.3195 124.648 30.0718 124.64C29.7256 124.637 29.4297 124.459 29.1842 124.104C28.9387 123.749 28.7778 123.364 28.7014 122.949C28.5288 122.194 28.3939 121.449 28.2967 120.713C28.1995 119.978 28.1139 119.23 28.0397 118.468C27.3387 118.712 26.6253 118.956 25.8997 119.201C25.1724 119.421 24.4575 119.64 23.7548 119.859C23.2213 120.017 22.752 120.023 22.347 119.876C21.9666 119.728 21.6552 119.501 21.4129 119.195C21.169 118.865 20.9973 118.505 20.8979 118.116C20.8215 117.701 20.8091 117.319 20.8605 116.969ZM28.4235 107.246C28.3807 107.348 28.3255 107.45 28.2581 107.553C28.189 107.632 28.1323 107.71 28.0878 107.787C27.0022 109.34 26.0313 110.948 25.1752 112.611C24.3421 114.247 23.6615 115.947 23.1334 117.712C23.8821 117.441 24.6431 117.169 25.4163 116.896C26.2127 116.597 27.0344 116.309 27.8815 116.031C27.7946 113.17 27.9753 110.241 28.4235 107.246ZM49.4062 109.554C48.9283 111.711 48.4872 113.866 48.0831 116.018C47.6775 118.145 47.2761 120.149 46.879 122.028C46.8061 122.429 46.6169 122.75 46.3113 122.992C46.0041 123.21 45.7242 123.277 45.4716 123.195C45.3454 123.154 45.2274 123.05 45.1178 122.884C45.0081 122.718 44.9092 122.527 44.821 122.31C44.7557 122.067 44.7028 121.824 44.6622 121.579C44.6447 121.308 44.641 121.061 44.6512 120.838C44.969 119.26 45.3331 117.445 45.7436 115.391C46.1771 113.311 46.6468 111.217 47.1525 109.107C46.565 109.195 45.9536 109.297 45.3184 109.412C44.6816 109.503 44.0571 109.593 43.4449 109.682C42.8328 109.771 42.2575 109.858 41.7192 109.942C41.1809 110.027 40.7164 110.106 40.3257 110.181C39.9073 110.208 39.5007 110.037 39.1059 109.667C38.7357 109.295 38.537 108.901 38.5098 108.482C38.5019 108.359 38.557 108.257 38.6753 108.175C38.792 108.068 38.911 107.999 39.0325 107.966C39.6661 107.826 40.3867 107.693 41.1942 107.566C42.0017 107.44 42.8223 107.325 43.656 107.221C44.4881 107.093 45.2964 106.979 46.0808 106.878C46.8899 106.776 47.6022 106.705 48.2175 106.665C48.3652 106.656 48.5292 106.707 48.7095 106.819C48.9128 106.904 49.0939 107.029 49.2528 107.191C49.4117 107.354 49.5467 107.531 49.658 107.721C49.7692 107.912 49.8296 108.081 49.8392 108.229L49.4062 109.554ZM64.7605 114.119C65.3609 112.325 66.0999 110.572 66.9774 108.859C67.8795 107.144 68.9409 105.406 70.1614 103.646C70.3701 103.435 70.6921 103.254 71.1271 103.102C71.5852 102.924 71.9799 102.91 72.311 103.062C72.3635 103.108 72.4028 103.142 72.429 103.165C72.4536 103.164 72.4798 103.187 72.5076 103.235C72.5275 103.159 72.5556 103.021 72.592 102.821C72.6959 102.518 72.8531 102.273 73.0634 102.086C73.2722 101.875 73.5143 101.797 73.7899 101.854C74.2163 101.949 74.5122 102.128 74.6774 102.389C74.8657 102.624 74.9595 102.927 74.9589 103.298C74.7546 104.72 74.5896 106.177 74.464 107.668C74.3613 109.133 74.3028 110.707 74.2884 112.388C75.0157 112.168 75.7691 111.971 76.5488 111.797C77.3269 111.598 78.1427 111.409 78.9963 111.23C79.1423 111.196 79.3023 111.185 79.4762 111.199C79.6748 111.211 79.8618 111.236 80.0373 111.274C80.2374 111.31 80.3899 111.374 80.4947 111.466C80.6242 111.557 80.6937 111.676 80.7033 111.824C80.7257 112.168 80.5495 112.501 80.1749 112.822C79.8002 113.143 79.3822 113.368 78.9209 113.497C78.1429 113.695 77.3779 113.906 76.626 114.128C75.8741 114.349 75.123 114.584 74.3728 114.83C74.4089 115.767 74.4589 116.728 74.5228 117.712C74.6114 118.695 74.7277 119.726 74.8719 120.804C74.9156 121.098 74.8324 121.338 74.622 121.525C74.4363 121.71 74.2195 121.798 73.9718 121.79C73.6256 121.787 73.3297 121.609 73.0842 121.254C72.8387 120.899 72.6778 120.514 72.6014 120.099C72.4288 119.344 72.2939 118.599 72.1967 117.863C72.0995 117.128 72.0139 116.38 71.9397 115.618C71.2387 115.862 70.5253 116.106 69.7997 116.35C69.0724 116.571 68.3575 116.79 67.6548 117.009C67.1213 117.167 66.652 117.173 66.247 117.026C65.8666 116.878 65.5552 116.651 65.3129 116.345C65.069 116.015 64.8973 115.655 64.7979 115.266C64.7215 114.851 64.7091 114.469 64.7605 114.119ZM72.3235 104.396C72.2807 104.498 72.2255 104.6 72.1581 104.703C72.089 104.782 72.0323 104.86 71.9878 104.937C70.9022 106.49 69.9313 108.098 69.0752 109.761C68.2421 111.397 67.5615 113.097 67.0334 114.862C67.7821 114.591 68.5431 114.319 69.3164 114.046C70.1127 113.747 70.9344 113.459 71.7815 113.181C71.6946 110.32 71.8753 107.391 72.3235 104.396ZM86.5589 118.711C86.0918 118.37 85.7431 117.948 85.5126 117.444C85.2805 116.915 85.1589 116.565 85.1477 116.392C84.5458 112.452 84.4541 108.564 84.8726 104.731C84.9621 104.206 85.0672 103.729 85.1877 103.301C85.3082 102.873 85.4423 102.654 85.59 102.645C85.7623 102.634 85.9501 102.671 86.1534 102.756C86.3567 102.842 86.537 102.954 86.6943 103.092C86.8516 103.23 86.9727 103.383 87.0578 103.551C87.1674 103.716 87.227 103.873 87.2366 104.021C86.9009 106.465 86.7868 108.895 86.8941 111.31C87.0245 113.7 87.2411 116.083 87.5438 118.461C87.5598 118.708 87.4586 118.862 87.2402 118.926C87.1188 118.959 86.9949 118.954 86.8686 118.913C86.7654 118.846 86.6621 118.778 86.5589 118.711ZM99.6694 103.955C100.056 104.968 100.107 105.942 99.8218 106.875C99.6569 107.38 99.4336 107.938 99.1519 108.55C98.8703 109.161 98.5525 109.787 98.1986 110.428C97.8431 111.045 97.4746 111.649 97.0929 112.243C96.7096 112.811 96.36 113.328 96.0441 113.794C96.484 113.716 97.0216 113.619 97.6567 113.504C98.315 113.362 98.9855 113.22 99.6683 113.077C100.376 112.932 101.059 112.801 101.719 112.684C102.402 112.541 103.013 112.427 103.551 112.343C103.82 112.3 104.129 112.305 104.479 112.356C104.853 112.406 105.103 112.452 105.229 112.493C105.382 112.557 105.44 112.69 105.403 112.89C105.39 113.064 105.328 113.253 105.218 113.458C105.107 113.663 104.972 113.857 104.811 114.04C104.672 114.198 104.554 114.28 104.456 114.286C103.676 114.46 102.811 114.652 101.861 114.862C100.935 115.071 99.9967 115.28 99.0463 115.49C98.0959 115.7 97.1579 115.909 96.2321 116.118C95.3293 116.3 94.5111 116.452 93.7775 116.574C93.4361 116.645 93.1319 116.529 92.865 116.225C92.6227 115.919 92.4657 115.596 92.3941 115.254C92.3909 115.205 92.3976 115.118 92.4142 114.994C92.4309 114.869 92.5658 114.662 92.819 114.374C93.7777 113.15 94.7046 111.817 95.5997 110.375C96.5178 108.906 97.2152 107.464 97.6919 106.049C97.7529 105.847 97.7655 105.661 97.7297 105.49C97.6923 105.295 97.6351 105.175 97.5581 105.131C97.4286 105.04 97.2654 105.001 97.0685 105.014C96.8946 105.001 96.6854 105.014 96.4408 105.055C96.0978 105.102 95.7449 105.187 95.3821 105.309C95.0192 105.431 94.6572 105.566 94.296 105.713C93.9594 105.859 93.6482 106.015 93.3624 106.182C93.075 106.324 92.8237 106.451 92.6086 106.564C92.3228 106.731 92.0806 106.809 91.8821 106.797C91.6836 106.785 91.5081 106.747 91.3556 106.683C91.2261 106.592 91.1213 106.5 91.0411 106.406C90.9608 106.313 90.9191 106.241 90.9159 106.192C90.8833 106.071 90.8852 105.91 90.9217 105.71C90.9581 105.51 90.997 105.346 91.0382 105.22C91.2421 104.935 91.5684 104.63 92.0169 104.304C92.49 103.977 93.0279 103.694 93.6304 103.458C94.256 103.194 94.9103 102.991 95.5931 102.848C96.3005 102.703 97.0144 102.657 97.7346 102.709C98.2103 102.802 98.6038 102.962 98.9151 103.189C99.2511 103.414 99.5025 103.67 99.6694 103.955ZM129.605 105.349C129.641 105.915 129.589 106.623 129.446 107.473C129.326 108.296 129.085 109.14 128.72 110.004C128.356 110.868 127.854 111.692 127.212 112.475C126.596 113.257 125.808 113.876 124.849 114.334C124.251 114.645 123.645 114.832 123.031 114.897C122.441 114.935 121.891 114.847 121.383 114.633C120.899 114.417 120.481 114.074 120.129 113.602C119.776 113.106 119.536 112.454 119.409 111.647C119.273 110.692 119.285 109.727 119.444 108.752C119.626 107.752 119.936 106.817 120.374 105.948C120.835 105.053 121.401 104.25 122.072 103.539C122.742 102.828 123.508 102.247 124.368 101.796C124.559 101.684 124.744 101.685 124.925 101.797C125.128 101.882 125.265 102.096 125.337 102.437C126.625 102.477 127.644 102.757 128.395 103.277C129.144 103.772 129.547 104.463 129.605 105.349ZM121.915 111.41C121.987 111.751 122.101 111.991 122.258 112.129C122.416 112.267 122.594 112.354 122.795 112.391C122.993 112.403 123.213 112.364 123.454 112.274C123.696 112.184 123.924 112.083 124.139 111.97C124.377 111.831 124.591 111.693 124.78 111.558C124.967 111.397 125.118 111.251 125.233 111.12C125.881 110.436 126.385 109.624 126.744 108.686C127.102 107.724 127.294 106.685 127.32 105.571C127.311 105.424 127.203 105.282 126.996 105.148C126.79 105.013 126.524 104.919 126.199 104.866C125.897 104.786 125.56 104.734 125.188 104.709C124.815 104.683 124.458 104.694 124.115 104.741C123.773 105.184 123.445 105.662 123.133 106.177C122.82 106.692 122.559 107.24 122.35 107.822C122.139 108.38 121.992 108.97 121.908 109.593C121.824 110.192 121.826 110.798 121.915 111.41ZM144.13 104.406C144.167 104.972 144.114 105.68 143.971 106.53C143.852 107.353 143.61 108.197 143.246 109.061C142.881 109.925 142.379 110.749 141.737 111.532C141.121 112.314 140.333 112.933 139.374 113.391C138.776 113.702 138.17 113.889 137.557 113.954C136.966 113.992 136.416 113.904 135.908 113.69C135.424 113.474 135.007 113.131 134.655 112.659C134.301 112.163 134.061 111.511 133.934 110.704C133.798 109.749 133.81 108.784 133.969 107.809C134.151 106.809 134.461 105.874 134.899 105.005C135.36 104.11 135.926 103.307 136.597 102.596C137.267 101.885 138.033 101.304 138.894 100.853C139.084 100.741 139.27 100.742 139.45 100.854C139.653 100.939 139.791 101.153 139.862 101.494C141.15 101.534 142.169 101.814 142.92 102.334C143.669 102.829 144.072 103.52 144.13 104.406ZM136.44 110.467C136.512 110.808 136.626 111.048 136.784 111.186C136.941 111.324 137.12 111.412 137.32 111.448C137.518 111.46 137.738 111.421 137.98 111.331C138.221 111.241 138.449 111.14 138.664 111.027C138.902 110.888 139.116 110.75 139.305 110.615C139.492 110.454 139.643 110.308 139.759 110.177C140.406 109.493 140.91 108.681 141.269 107.743C141.627 106.781 141.819 105.742 141.845 104.628C141.836 104.481 141.728 104.339 141.521 104.205C141.315 104.07 141.049 103.976 140.724 103.923C140.423 103.843 140.085 103.791 139.713 103.766C139.341 103.74 138.983 103.751 138.64 103.798C138.298 104.241 137.971 104.719 137.658 105.234C137.345 105.749 137.084 106.297 136.875 106.879C136.664 107.437 136.517 108.027 136.434 108.65C136.349 109.249 136.351 109.855 136.44 110.467ZM165.475 106.691C166.452 106.899 167.232 107.294 167.813 107.874C168.418 108.428 168.748 109.136 168.804 109.997C168.856 110.81 168.623 111.591 168.103 112.342C167.582 113.068 166.942 113.69 166.185 114.209C165.996 114.345 165.699 114.525 165.293 114.749C164.886 114.948 164.441 115.138 163.958 115.317C163.499 115.471 163.025 115.6 162.537 115.706C162.048 115.787 161.614 115.766 161.236 115.642C161.034 115.581 160.827 115.434 160.614 115.201C160.425 114.966 160.258 114.68 160.113 114.343C159.992 114.005 159.919 113.639 159.893 113.245C159.891 112.825 159.987 112.399 160.181 111.966C160.61 110.949 161.086 109.917 161.612 108.87C162.137 107.822 162.686 106.761 163.259 105.685C162.797 105.419 162.367 105.088 161.971 104.694C161.573 104.275 161.245 103.802 160.989 103.274C160.732 102.747 160.559 102.178 160.47 101.565C160.404 100.927 160.459 100.256 160.636 99.5524C160.856 98.7472 161.353 98.0351 162.129 97.4162C162.904 96.7974 163.87 96.4504 165.027 96.3753C165.569 96.3401 166.13 96.4149 166.71 96.5997C167.316 96.7829 167.817 97.084 168.215 97.5031C168.611 97.8976 168.842 98.4017 168.907 99.0155C168.996 99.6277 168.82 100.356 168.381 101.2C167.848 102.125 167.327 103.048 166.818 103.971C166.308 104.869 165.811 105.779 165.327 106.701L165.475 106.691ZM166.212 100.34C166.673 99.4448 166.614 98.9172 166.035 98.757C165.408 98.6246 164.781 98.6777 164.154 98.9162C163.55 99.1284 163.099 99.6027 162.8 100.339C162.739 100.541 162.706 100.79 162.701 101.087C162.695 101.384 162.741 101.702 162.837 102.042C162.933 102.382 163.091 102.718 163.31 103.05C163.552 103.355 163.866 103.619 164.251 103.841C164.559 103.253 164.88 102.676 165.214 102.11C165.547 101.52 165.879 100.93 166.212 100.34ZM162.338 113.198C162.534 113.185 162.814 113.117 163.177 112.995C163.54 112.873 163.925 112.712 164.332 112.512C164.74 112.313 165.145 112.089 165.549 111.84C165.952 111.567 166.291 111.273 166.567 110.958C166.816 110.596 166.739 110.181 166.338 109.712C165.962 109.242 165.435 108.745 164.758 108.221C164.707 108.199 164.669 108.177 164.643 108.154C164.641 108.129 164.627 108.106 164.601 108.082C164.16 108.902 163.757 109.744 163.393 110.608C163.027 111.448 162.675 112.311 162.338 113.198ZM175.445 104.227C176.134 104.182 176.846 104.111 177.582 104.014C178.317 103.917 179.022 103.921 179.696 104.025C180.57 104.166 181.238 104.555 181.7 105.193C182.161 105.83 182.272 106.589 182.033 107.47C181.851 108.1 181.582 108.71 181.225 109.302C180.868 109.894 180.447 110.453 179.962 110.978C179.501 111.503 179.003 112.005 178.465 112.485C177.953 112.963 177.45 113.416 176.959 113.843C176.629 114.087 176.275 114.159 175.898 114.06C175.519 113.936 175.223 113.758 175.01 113.525C174.481 112.99 174.532 112.629 175.162 112.439C176.357 111.423 177.38 110.429 178.232 109.459C179.082 108.465 179.697 107.473 180.078 106.484C180.116 106.309 179.973 106.207 179.65 106.179C179.327 106.15 178.92 106.164 178.429 106.221C177.963 106.276 177.449 106.346 176.886 106.432C176.323 106.518 175.821 106.6 175.382 106.678C175.236 106.712 175.051 106.724 174.828 106.714C174.605 106.704 174.379 106.657 174.151 106.573C173.923 106.489 173.73 106.365 173.571 106.202C173.411 106.015 173.321 105.774 173.302 105.478C173.249 103.529 173.271 101.587 173.368 99.6528C173.49 97.7168 173.634 95.9401 173.801 94.3226C173.834 94.0732 173.935 93.9183 174.104 93.8579C174.298 93.7959 174.496 93.7954 174.698 93.8565C175.129 94.0262 175.453 94.2647 175.671 94.5719C175.912 94.8529 176.016 95.1304 175.985 95.4044C175.918 95.9031 175.853 96.4264 175.79 96.9743C175.751 97.5206 175.713 98.0792 175.676 98.6502C176.997 98.4408 178.236 98.2986 179.393 98.2235C180.573 98.1221 181.647 98.1018 182.615 98.1626C182.938 98.1911 183.262 98.2318 183.587 98.2849C183.935 98.3117 184.297 98.3747 184.675 98.4738C184.949 98.5055 185.168 98.6519 185.333 98.9131C185.497 99.1496 185.486 99.3605 185.3 99.5455C184.895 99.7696 184.547 99.9405 184.258 100.058C183.992 100.15 183.835 100.197 183.786 100.2C180.798 100.246 178.049 100.548 175.539 101.106C175.527 101.676 175.513 102.233 175.499 102.777C175.483 103.297 175.465 103.781 175.445 104.227ZM188.204 106.105C188.804 104.311 189.543 102.558 190.42 100.845C191.323 99.1299 192.384 97.3925 193.604 95.6324C193.813 95.4211 194.135 95.2395 194.57 95.0876C195.028 94.9096 195.423 94.8963 195.754 95.0479C195.806 95.0939 195.846 95.1284 195.872 95.1514C195.897 95.1498 195.923 95.1729 195.951 95.2205C195.97 95.145 195.999 95.0073 196.035 94.8072C196.139 94.5038 196.296 94.2588 196.506 94.0721C196.715 93.8608 196.957 93.7833 197.233 93.8395C197.659 93.9354 197.955 94.114 198.12 94.3751C198.309 94.6101 198.403 94.913 198.402 95.2838C198.198 96.706 198.033 98.1628 197.907 99.6541C197.804 101.119 197.746 102.693 197.731 104.374C198.459 104.154 199.212 103.957 199.992 103.783C200.77 103.584 201.586 103.395 202.439 103.216C202.585 103.182 202.745 103.171 202.919 103.185C203.118 103.197 203.305 103.222 203.48 103.26C203.68 103.296 203.833 103.36 203.938 103.452C204.067 103.543 204.137 103.662 204.146 103.81C204.169 104.154 203.993 104.487 203.618 104.808C203.243 105.129 202.825 105.354 202.364 105.483C201.586 105.681 200.821 105.892 200.069 106.114C199.317 106.335 198.566 106.57 197.816 106.816C197.852 107.753 197.902 108.714 197.966 109.698C198.054 110.681 198.171 111.712 198.315 112.79C198.359 113.084 198.275 113.324 198.065 113.511C197.879 113.696 197.663 113.784 197.415 113.776C197.069 113.773 196.773 113.595 196.527 113.24C196.282 112.885 196.121 112.5 196.044 112.085C195.872 111.33 195.737 110.585 195.64 109.849C195.543 109.114 195.457 108.366 195.383 107.604C194.682 107.848 193.968 108.092 193.243 108.336C192.515 108.557 191.8 108.776 191.098 108.995C190.564 109.153 190.095 109.159 189.69 109.012C189.31 108.864 188.998 108.637 188.756 108.331C188.512 108.001 188.34 107.641 188.241 107.252C188.165 106.837 188.152 106.455 188.204 106.105ZM195.766 96.3819C195.724 96.4835 195.668 96.586 195.601 96.6892C195.532 96.7679 195.475 96.8457 195.431 96.9227C194.345 98.4763 193.374 100.084 192.518 101.747C191.685 103.383 191.005 105.083 190.476 106.848C191.225 106.576 191.986 106.305 192.759 106.032C193.556 105.733 194.377 105.445 195.225 105.167C195.138 102.306 195.318 99.3772 195.766 96.3819Z" fill="#9D9D9D"/>
</svg>
