<svg width="148" height="125" viewBox="0 0 148 125" fill="none" xmlns="http://www.w3.org/2000/svg">
<circle cx="4" cy="4" r="4" fill="#7693E7" fill-opacity="0.17"/>
<circle cx="4" cy="17" r="4" fill="#7693E7" fill-opacity="0.17"/>
<circle cx="4" cy="30" r="4" fill="#7693E7" fill-opacity="0.17"/>
<circle cx="4" cy="43" r="4" fill="#7693E7" fill-opacity="0.17"/>
<circle cx="4" cy="56" r="4" fill="#7693E7" fill-opacity="0.17"/>
<circle cx="4" cy="69" r="4" fill="#7693E7" fill-opacity="0.17"/>
<circle cx="4" cy="82" r="4" fill="#7693E7" fill-opacity="0.17"/>
<circle cx="4" cy="95" r="4" fill="#7693E7" fill-opacity="0.17"/>
<circle cx="4" cy="108" r="4" fill="#7693E7" fill-opacity="0.17"/>
<circle cx="4" cy="121" r="4" fill="#7693E7" fill-opacity="0.17"/>
<circle cx="18" cy="4" r="4" fill="#7693E7" fill-opacity="0.17"/>
<circle cx="18" cy="17" r="4" fill="#7693E7" fill-opacity="0.17"/>
<circle cx="18" cy="30" r="4" fill="#7693E7" fill-opacity="0.17"/>
<circle cx="18" cy="43" r="4" fill="#7693E7" fill-opacity="0.17"/>
<circle cx="18" cy="56" r="4" fill="#7693E7" fill-opacity="0.17"/>
<circle cx="18" cy="69" r="4" fill="#7693E7" fill-opacity="0.17"/>
<circle cx="18" cy="82" r="4" fill="#7693E7" fill-opacity="0.17"/>
<circle cx="18" cy="95" r="4" fill="#7693E7" fill-opacity="0.17"/>
<circle cx="18" cy="108" r="4" fill="#7693E7" fill-opacity="0.17"/>
<circle cx="18" cy="121" r="4" fill="#7693E7" fill-opacity="0.17"/>
<circle cx="32" cy="4" r="4" fill="#7693E7" fill-opacity="0.17"/>
<circle cx="32" cy="17" r="4" fill="#7693E7" fill-opacity="0.17"/>
<circle cx="32" cy="30" r="4" fill="#7693E7" fill-opacity="0.17"/>
<circle cx="32" cy="43" r="4" fill="#7693E7" fill-opacity="0.17"/>
<circle cx="32" cy="56" r="4" fill="#7693E7" fill-opacity="0.17"/>
<circle cx="32" cy="69" r="4" fill="#7693E7" fill-opacity="0.17"/>
<circle cx="32" cy="82" r="4" fill="#7693E7" fill-opacity="0.17"/>
<circle cx="32" cy="95" r="4" fill="#7693E7" fill-opacity="0.17"/>
<circle cx="32" cy="108" r="4" fill="#7693E7" fill-opacity="0.17"/>
<circle cx="32" cy="121" r="4" fill="#7693E7" fill-opacity="0.17"/>
<circle cx="46" cy="4" r="4" fill="#7693E7" fill-opacity="0.17"/>
<circle cx="46" cy="17" r="4" fill="#7693E7" fill-opacity="0.17"/>
<circle cx="46" cy="30" r="4" fill="#7693E7" fill-opacity="0.17"/>
<circle cx="46" cy="43" r="4" fill="#7693E7" fill-opacity="0.17"/>
<circle cx="46" cy="56" r="4" fill="#7693E7" fill-opacity="0.17"/>
<circle cx="46" cy="69" r="4" fill="#7693E7" fill-opacity="0.17"/>
<circle cx="46" cy="82" r="4" fill="#7693E7" fill-opacity="0.17"/>
<circle cx="46" cy="95" r="4" fill="#7693E7" fill-opacity="0.17"/>
<circle cx="46" cy="108" r="4" fill="#7693E7" fill-opacity="0.17"/>
<circle cx="46" cy="121" r="4" fill="#7693E7" fill-opacity="0.17"/>
<circle cx="60" cy="4" r="4" fill="#7693E7" fill-opacity="0.17"/>
<circle cx="60" cy="17" r="4" fill="#7693E7" fill-opacity="0.17"/>
<circle cx="60" cy="30" r="4" fill="#7693E7" fill-opacity="0.17"/>
<circle cx="60" cy="43" r="4" fill="#7693E7" fill-opacity="0.17"/>
<circle cx="60" cy="56" r="4" fill="#7693E7" fill-opacity="0.17"/>
<circle cx="60" cy="69" r="4" fill="#7693E7" fill-opacity="0.17"/>
<circle cx="60" cy="82" r="4" fill="#7693E7" fill-opacity="0.17"/>
<circle cx="60" cy="95" r="4" fill="#7693E7" fill-opacity="0.17"/>
<circle cx="60" cy="108" r="4" fill="#7693E7" fill-opacity="0.17"/>
<circle cx="60" cy="121" r="4" fill="#7693E7" fill-opacity="0.17"/>
<circle cx="74" cy="4" r="4" fill="#7693E7" fill-opacity="0.17"/>
<circle cx="74" cy="17" r="4" fill="#7693E7" fill-opacity="0.17"/>
<circle cx="74" cy="30" r="4" fill="#7693E7" fill-opacity="0.17"/>
<circle cx="74" cy="43" r="4" fill="#7693E7" fill-opacity="0.17"/>
<circle cx="74" cy="56" r="4" fill="#7693E7" fill-opacity="0.17"/>
<circle cx="74" cy="69" r="4" fill="#7693E7" fill-opacity="0.17"/>
<circle cx="74" cy="82" r="4" fill="#7693E7" fill-opacity="0.17"/>
<circle cx="74" cy="95" r="4" fill="#7693E7" fill-opacity="0.17"/>
<circle cx="74" cy="108" r="4" fill="#7693E7" fill-opacity="0.17"/>
<circle cx="74" cy="121" r="4" fill="#7693E7" fill-opacity="0.17"/>
<circle cx="88" cy="4" r="4" fill="#7693E7" fill-opacity="0.17"/>
<circle cx="88" cy="17" r="4" fill="#7693E7" fill-opacity="0.17"/>
<circle cx="88" cy="30" r="4" fill="#7693E7" fill-opacity="0.17"/>
<circle cx="88" cy="43" r="4" fill="#7693E7" fill-opacity="0.17"/>
<circle cx="88" cy="56" r="4" fill="#7693E7" fill-opacity="0.17"/>
<circle cx="88" cy="69" r="4" fill="#7693E7" fill-opacity="0.17"/>
<circle cx="88" cy="82" r="4" fill="#7693E7" fill-opacity="0.17"/>
<circle cx="88" cy="95" r="4" fill="#7693E7" fill-opacity="0.17"/>
<circle cx="88" cy="108" r="4" fill="#7693E7" fill-opacity="0.17"/>
<circle cx="88" cy="121" r="4" fill="#7693E7" fill-opacity="0.17"/>
<circle cx="102" cy="4" r="4" fill="#7693E7" fill-opacity="0.17"/>
<circle cx="102" cy="17" r="4" fill="#7693E7" fill-opacity="0.17"/>
<circle cx="102" cy="30" r="4" fill="#7693E7" fill-opacity="0.17"/>
<circle cx="102" cy="43" r="4" fill="#7693E7" fill-opacity="0.17"/>
<circle cx="102" cy="56" r="4" fill="#7693E7" fill-opacity="0.17"/>
<circle cx="102" cy="69" r="4" fill="#7693E7" fill-opacity="0.17"/>
<circle cx="102" cy="82" r="4" fill="#7693E7" fill-opacity="0.17"/>
<circle cx="102" cy="95" r="4" fill="#7693E7" fill-opacity="0.17"/>
<circle cx="102" cy="108" r="4" fill="#7693E7" fill-opacity="0.17"/>
<circle cx="102" cy="121" r="4" fill="#7693E7" fill-opacity="0.17"/>
<circle cx="116" cy="4" r="4" fill="#7693E7" fill-opacity="0.17"/>
<circle cx="116" cy="17" r="4" fill="#7693E7" fill-opacity="0.17"/>
<circle cx="116" cy="30" r="4" fill="#7693E7" fill-opacity="0.17"/>
<circle cx="116" cy="43" r="4" fill="#7693E7" fill-opacity="0.17"/>
<circle cx="116" cy="56" r="4" fill="#7693E7" fill-opacity="0.17"/>
<circle cx="116" cy="69" r="4" fill="#7693E7" fill-opacity="0.17"/>
<circle cx="116" cy="82" r="4" fill="#7693E7" fill-opacity="0.17"/>
<circle cx="116" cy="95" r="4" fill="#7693E7" fill-opacity="0.17"/>
<circle cx="116" cy="108" r="4" fill="#7693E7" fill-opacity="0.17"/>
<circle cx="116" cy="121" r="4" fill="#7693E7" fill-opacity="0.17"/>
<circle cx="130" cy="4" r="4" fill="#7693E7" fill-opacity="0.17"/>
<circle cx="130" cy="17" r="4" fill="#7693E7" fill-opacity="0.17"/>
<circle cx="130" cy="30" r="4" fill="#7693E7" fill-opacity="0.17"/>
<circle cx="130" cy="43" r="4" fill="#7693E7" fill-opacity="0.17"/>
<circle cx="130" cy="56" r="4" fill="#7693E7" fill-opacity="0.17"/>
<circle cx="130" cy="69" r="4" fill="#7693E7" fill-opacity="0.17"/>
<circle cx="130" cy="82" r="4" fill="#7693E7" fill-opacity="0.17"/>
<circle cx="130" cy="95" r="4" fill="#7693E7" fill-opacity="0.17"/>
<circle cx="130" cy="108" r="4" fill="#7693E7" fill-opacity="0.17"/>
<circle cx="130" cy="121" r="4" fill="#7693E7" fill-opacity="0.17"/>
<circle cx="144" cy="4" r="4" fill="#7693E7" fill-opacity="0.17"/>
<circle cx="144" cy="17" r="4" fill="#7693E7" fill-opacity="0.17"/>
<circle cx="144" cy="30" r="4" fill="#7693E7" fill-opacity="0.17"/>
<circle cx="144" cy="43" r="4" fill="#7693E7" fill-opacity="0.17"/>
<circle cx="144" cy="56" r="4" fill="#7693E7" fill-opacity="0.17"/>
<circle cx="144" cy="69" r="4" fill="#7693E7" fill-opacity="0.17"/>
<circle cx="144" cy="82" r="4" fill="#7693E7" fill-opacity="0.17"/>
<circle cx="144" cy="95" r="4" fill="#7693E7" fill-opacity="0.17"/>
<circle cx="144" cy="108" r="4" fill="#7693E7" fill-opacity="0.17"/>
<circle cx="144" cy="121" r="4" fill="#7693E7" fill-opacity="0.17"/>
</svg>
