<svg xmlns="http://www.w3.org/2000/svg" xmlns:xlink="http://www.w3.org/1999/xlink" width="843" height="426" fill="none" xmlns:v="https://vecta.io/nano"><style><![CDATA[.B{stroke-linejoin:round}.C{stroke-miterlimit:10}.D{stroke-width:4}.E{stroke:#1f3969}.F{stroke:#fff}.G{fill:#1f3969}.H{opacity:.28}.I{stroke:#9169ff}.J{stroke-linecap:round}.K{stroke:#7bffa0}.L{stroke-width:2}.M{stroke:#ffc47d}.N{stroke:#ff5757}]]></style><path d="M830.168 425.065H11.873A11.82 11.82 0 0 1 0 413.193c0-6.596 5.277-11.873 11.873-11.873h818.295c6.596 0 11.873 5.277 11.873 11.873a11.82 11.82 0 0 1-11.873 11.872z" fill="#c9c9c9"/><use xlink:href="#B" fill="#cecece"/><path d="M302.623 310.296h-136.8c-17.018 0-30.737-13.852-30.737-30.738 0-17.017 13.851-30.737 30.737-30.737h136.8v61.475h0z" fill="#fff"/><g class="C D E B"><path d="M157.38 272.435h137.724M157.38 286.418h137.724" class="J"/><use xlink:href="#B"/></g><use xlink:href="#C" fill="#d64e7a"/><g class="B C D E"><use xlink:href="#C"/><path d="M273.205 248.689h-24.273v61.607h24.273v-61.607z" class="G H"/></g><use xlink:href="#D" fill="#db8b33"/><g class="B C D E"><use xlink:href="#D"/><path d="M288.508 310.295h-39.576v19.788c0 12.401 10.026 22.559 22.558 22.559h25.988v-.396-32.98c0-5.013-3.957-8.971-8.97-8.971z" class="G H"/></g><use xlink:href="#E" fill="#cecece"/><use xlink:href="#F" fill="#5f5aff"/><use xlink:href="#F" stroke="#506cbc" class="B C D"/><use xlink:href="#F" y="37.993" fill="#f6f9fd"/><use xlink:href="#F" y="37.993" fill="#5f5aff"/><use xlink:href="#F" y="37.993" stroke="#506cbc" class="B C D"/><use xlink:href="#G" fill="#bfcfe2"/><g class="B C D E"><path d="M449.845 336.679l-2.374 26.648h69.917l-2.374-26.648h-65.169z" class="G H"/><use xlink:href="#G"/></g><use xlink:href="#H" fill="#fff"/><use xlink:href="#H" fill="#bfcfe2"/><use xlink:href="#H" class="B C D E"/><path d="M684.34 292.655V62.324H280.667v230.331H684.34z" fill="#f6f9fd"/><g class="B C D E"><path d="M295.104 39.861v182.84c0 5.805 4.749 10.554 10.553 10.554h249.46c5.804 0 10.553-4.749 10.553-10.554V39.861H295.104z" class="G H"/><path d="M684.34 292.655V62.324H280.667v230.331H684.34z"/><path d="M464.753 317.815h35.486" class="J"/></g><path d="M566.99 218.743H317.53c-5.804 0-10.553-4.749-10.553-10.553V12.686c0-5.804 4.749-10.554 10.553-10.554h249.46c5.804 0 10.553 4.749 10.553 10.554v195.637c0 5.804-4.749 10.421-10.553 10.421z" fill="#441d4f"/><path d="M577.543 27.724H306.977V12.554C306.977 6.749 311.726 2 317.53 2h249.46c5.804 0 10.553 4.749 10.553 10.554v15.171z" class="B C D E"/><use xlink:href="#I" fill="#d0ddf0"/><g class="B C D E"><use xlink:href="#I"/><use xlink:href="#I"/><path d="M566.99 218.744H317.53a10.59 10.59 0 0 1-10.553-10.554V12.686c0-5.804 4.749-10.554 10.553-10.554h249.46c5.804 0 10.553 4.749 10.553 10.554v195.637c0 5.804-4.749 10.422-10.553 10.422z"/><path d="M697.194 265.443H544.168a10.59 10.59 0 0 1-10.554-10.554V92.761a10.59 10.59 0 0 1 10.554-10.554h153.026c5.805 0 10.554 4.749 10.554 10.554v162.128c0 5.937-4.749 10.554-10.554 10.554z" class="G H"/></g><use xlink:href="#J" fill="#7693e7"/><g class="B C"><use xlink:href="#J" class="D E"/><path opacity=".34" d="M684.926 123.234H577.28a6.81 6.81 0 0 1-6.86-6.86v-10.29a6.81 6.81 0 0 1 6.86-6.859h107.646a6.81 6.81 0 0 1 6.86 6.859v10.29a6.81 6.81 0 0 1-6.86 6.86z" class="F L"/></g><path opacity=".116" d="M637.699 161.886h-60.156a6.81 6.81 0 0 1-6.859-6.86v-10.289a6.81 6.81 0 0 1 6.859-6.86h60.156a6.81 6.81 0 0 1 6.859 6.86v10.289c-.131 3.826-3.166 6.86-6.859 6.86zm47.359 0h-23.35a6.81 6.81 0 0 1-6.86-6.86v-10.289a6.81 6.81 0 0 1 6.86-6.86h23.35a6.81 6.81 0 0 1 6.86 6.86v10.289a6.81 6.81 0 0 1-6.86 6.86z" class="B C F L"/><path d="M570.552 201.99h121.234m-121.234 14.247h121.234m-121.234 14.247h73.875" class="B C F J L"/><g class="G"><use xlink:href="#K"/><path d="M351.829 22.711a5.28 5.28 0 0 0 5.276-5.277 5.28 5.28 0 0 0-5.276-5.277 5.28 5.28 0 0 0-5.277 5.277 5.28 5.28 0 0 0 5.277 5.277z"/><use xlink:href="#K" x="36.674"/></g><g class="C D B"><g class="J"><path d="M462.378 57.142h17.149" class="F"/><path d="M375.443 57.142h74.27" class="K"/><path d="M338.77 57.142h26.12m7.914 129.941h56.725" class="I"/><path d="M338.77 187.083h18.336" class="K"/><path d="M449.713 73.368h10.686" class="F"/><path d="M401.167 73.368h35.882" class="I"/><path d="M351.829 73.368h36.542" class="M"/><path d="M408.422 89.595h31.529" class="F"/><path d="M368.846 89.595h29.682" class="N"/><path d="M412.644 105.821h6.464" class="F"/><path d="M386.524 105.821h14.643" class="I"/><path d="M351.829 105.821h23.614" class="K"/><path d="M402.486 122.178h42.082" class="M"/><path d="M351.829 122.178h37.729" class="N"/><path d="M451.164 138.405h22.822" class="I"/><path d="M402.486 138.405h36.541" class="N"/><path d="M368.846 138.405h20.712" class="K"/><path d="M419.107 154.631h19.92" class="F"/><path d="M368.846 154.631h36.542" class="I"/><path d="M470.952 170.857h22.822" class="F"/><path d="M401.167 170.857h57.385" class="M"/><path d="M351.829 170.857h36.542" class="F"/><path d="M72.161 380.477h284.287M72.161 391.03h284.287" class="E"/></g><use xlink:href="#E" class="E"/></g><path d="M749.498 263.822l-12.84 1.507 11.167 95.122 12.84-1.507-11.167-95.122z" fill="#db8b33"/><path d="M749.516 263.923l-12.841 1.507 1.139 9.696 12.84-1.508-1.138-9.695z" fill="#2aa1ff"/><g class="B C D E"><path d="M749.516 263.923l-12.841 1.507 1.139 9.696 12.84-1.508-1.138-9.695z"/><path d="M749.498 263.822l-12.84 1.507 11.167 95.122 12.84-1.507-11.167-95.122z"/></g><path d="M784.707 283.306l-12.852-1.398-10.353 95.209 12.852 1.397 10.353-95.208z" fill="#d64e7a"/><path d="M784.707 283.306l-12.852-1.398-10.353 95.209 12.852 1.397 10.353-95.208z" class="B C D E"/><path d="M784.803 283.328l-12.852-1.397-1.055 9.704 12.851 1.398 1.056-9.705z" fill="#2d425e"/><path d="M784.803 283.328l-12.852-1.397-1.055 9.704 12.851 1.398 1.056-9.705z" class="B C D E"/><path d="M792.703 409.631h-51.845l-8.442-79.416h68.73l-8.443 79.416z" fill="#506cbc"/><path d="M792.703 409.631h-51.845l-8.442-79.416h68.73l-8.443 79.416z" class="B C D E"/><defs ><path id="B" d="M165.823 302.38c-12.664 0-22.822-10.289-22.822-22.822s10.289-22.822 22.822-22.822h129.281v45.776H165.823v-.132z"/><path id="C" d="M165.823 302.38c-12.664 0-22.822-10.289-22.822-22.822s10.289-22.822 22.822-22.822h131.523l5.277-7.915h-136.8c-17.018 0-30.737 13.852-30.737 30.737 0 17.018 13.851 30.738 30.737 30.738h136.8l-5.277-7.916H165.823z"/><path id="D" d="M288.508 361.084H37.993c-4.881 0-8.97-3.957-8.97-8.97v-32.98c0-4.881 3.958-8.97 8.97-8.97h250.515c4.881 0 8.97 3.957 8.97 8.97v32.98c0 5.013-3.957 8.97-8.97 8.97z"/><path id="E" d="M359.085 371.374H68.862c1.715 4.222 2.638 9.498 2.638 15.039s-.923 10.685-2.638 15.039h290.091c-1.715-4.222-2.639-9.498-2.639-15.039.132-5.673 1.056-10.817 2.771-15.039z"/><path id="F" d="M367 363.327H61.079v7.915H367v-7.915z"/><path id="G" d="M518.971 381.136l-3.958-44.457h-65.168l-3.957 44.457c-.924 10.29-7.124 20.184-16.886 28.099v.132h106.855v-.132c-9.762-7.915-15.963-17.809-16.886-28.099z"/><path id="H" d="M690.862 343.275H273.997c-8.706 0-15.83-7.123-15.83-15.83V55.691c0-8.707 7.124-15.83 15.83-15.83h416.865c8.707 0 15.831 7.124 15.831 15.83v271.754c0 8.839-7.124 15.83-15.831 15.83z"/><path id="I" d="M577.543 32.737H306.977V12.554C306.977 6.749 311.726 2 317.53 2h249.46c5.804 0 10.553 4.749 10.553 10.554v20.184z"/><path id="J" d="M707.748 256.209H554.722c-5.805 0-10.554-4.749-10.554-10.554V83.526c0-5.804 4.749-10.553 10.554-10.553h153.026c5.805 0 10.554 4.749 10.554 10.554v162.129c0 5.936-4.749 10.554-10.554 10.554z"/><path id="K" d="M333.492 22.711a5.28 5.28 0 0 0 5.277-5.277 5.28 5.28 0 0 0-5.277-5.277 5.28 5.28 0 0 0-5.277 5.277 5.28 5.28 0 0 0 5.277 5.277z"/></defs></svg>