<svg width="92" height="200" viewBox="0 0 92 200" fill="none" xmlns="http://www.w3.org/2000/svg">
<path opacity="0.05" d="M20.0426 83.5073C25.5475 84.273 29.7742 83.8285 32.7226 82.1737C35.6912 80.4073 37.5387 77.5167 38.2652 73.5019C38.81 70.4908 39.3319 64.4235 39.831 55.2999C39.8809 54.3875 40.0609 51.4832 40.3709 46.5868C40.7012 41.5789 41.2194 37.1233 41.9257 33.22C43.6408 23.7406 47.8722 16.9048 54.6198 12.7125C61.3875 8.40871 69.6226 7.13458 79.3251 8.89011L91.3695 11.0694L87.132 34.4891L80.6079 33.3087C77.0392 32.663 74.333 32.9795 72.4891 34.2583C70.6453 35.5371 69.4308 37.7936 68.8457 41.0278C68.4017 43.4813 67.8389 49.1381 67.1571 57.9983C66.2035 68.9976 65.424 76.1701 64.8187 79.5158C63.7089 85.6495 61.2852 90.4514 57.5477 93.9213C53.9216 97.4115 48.9966 99.1694 42.7726 99.195L42.7121 99.5295C48.5124 101.846 52.4991 105.274 54.6722 109.813C56.9771 114.261 57.5645 119.608 56.4345 125.853C55.8292 129.199 54.046 136.19 51.0849 146.826C48.6592 155.14 47.2143 160.58 46.7502 163.145C46.165 166.379 46.5118 168.918 47.7906 170.762C49.0493 172.717 51.4629 174.018 55.0317 174.663L61.5557 175.844L57.3182 199.264L45.2738 197.084C35.5713 195.329 28.3048 191.25 23.4742 184.848C18.6234 178.557 17.0657 170.616 18.8011 161.025C19.5073 157.122 20.5731 152.823 21.9984 148.128C23.4438 143.322 24.3031 140.483 24.576 139.611C27.3055 130.891 28.9427 125.025 29.4875 122.014C30.1736 118.222 29.4359 114.979 27.2744 112.285C25.1332 109.479 21.3504 107.47 15.9262 106.258L20.0426 83.5073Z" fill="#441D4F"/>
</svg>
