<svg width="1678" height="207" viewBox="0 0 1678 207" fill="none" xmlns="http://www.w3.org/2000/svg">
<path opacity="0.03" d="M147.81 34.414V205H106.257V134.773H41.619V205H0.0660007V34.414H41.619V101.239H106.257V34.414H147.81ZM297.12 135.016C297.12 138.904 296.877 142.954 296.391 147.166H202.35C202.998 155.59 205.671 162.07 210.369 166.606C215.229 170.98 221.142 173.167 228.108 173.167C238.476 173.167 245.685 168.793 249.735 160.045H293.961C291.693 168.955 287.562 176.974 281.568 184.102C275.736 191.23 268.365 196.819 259.455 200.869C250.545 204.919 240.582 206.944 229.566 206.944C216.282 206.944 204.456 204.109 194.088 198.439C183.72 192.769 175.62 184.669 169.788 174.139C163.956 163.609 161.04 151.297 161.04 137.203C161.04 123.109 163.875 110.797 169.545 100.267C175.377 89.737 183.477 81.637 193.845 75.967C204.213 70.297 216.12 67.462 229.566 67.462C242.688 67.462 254.352 70.216 264.558 75.724C274.764 81.232 282.702 89.089 288.372 99.295C294.204 109.501 297.12 121.408 297.12 135.016ZM254.595 124.081C254.595 116.953 252.165 111.283 247.305 107.071C242.445 102.859 236.37 100.753 229.08 100.753C222.114 100.753 216.201 102.778 211.341 106.828C206.643 110.878 203.727 116.629 202.593 124.081H254.595ZM352.089 25.18V205H310.536V25.18H352.089ZM449.27 169.765V205H428.129C413.063 205 401.318 201.355 392.894 194.065C384.47 186.613 380.258 174.544 380.258 157.858V103.912H363.734V69.406H380.258V36.358H421.811V69.406H449.027V103.912H421.811V158.344C421.811 162.394 422.783 165.31 424.727 167.092C426.671 168.874 429.911 169.765 434.447 169.765H449.27ZM636.906 89.332C636.906 99.214 634.638 108.286 630.102 116.548C625.566 124.648 618.6 131.209 609.204 136.231C599.808 141.253 588.144 143.764 574.212 143.764H548.454V205H506.901V34.414H574.212C587.82 34.414 599.322 36.763 608.718 41.461C618.114 46.159 625.161 52.639 629.859 60.901C634.557 69.163 636.906 78.64 636.906 89.332ZM571.053 110.716C578.991 110.716 584.904 108.853 588.792 105.127C592.68 101.401 594.624 96.136 594.624 89.332C594.624 82.528 592.68 77.263 588.792 73.537C584.904 69.811 578.991 67.948 571.053 67.948H548.454V110.716H571.053ZM641.772 136.96C641.772 123.028 644.364 110.797 649.548 100.267C654.894 89.737 662.103 81.637 671.175 75.967C680.247 70.297 690.372 67.462 701.55 67.462C711.108 67.462 719.451 69.406 726.579 73.294C733.869 77.182 739.458 82.285 743.346 88.603V69.406H784.899V205H743.346V185.803C739.296 192.121 733.626 197.224 726.336 201.112C719.208 205 710.865 206.944 701.307 206.944C690.291 206.944 680.247 204.109 671.175 198.439C662.103 192.607 654.894 184.426 649.548 173.896C644.364 163.204 641.772 150.892 641.772 136.96ZM743.346 137.203C743.346 126.835 740.43 118.654 734.598 112.66C728.928 106.666 721.962 103.669 713.7 103.669C705.438 103.669 698.391 106.666 692.559 112.66C686.889 118.492 684.054 126.592 684.054 136.96C684.054 147.328 686.889 155.59 692.559 161.746C698.391 167.74 705.438 170.737 713.7 170.737C721.962 170.737 728.928 167.74 734.598 161.746C740.43 155.752 743.346 147.571 743.346 137.203ZM748.206 30.04C748.206 38.95 745.29 46.078 739.458 51.424C733.788 56.77 726.741 59.443 718.317 59.443C709.893 59.443 702.846 56.77 697.176 51.424C691.506 46.078 688.671 38.95 688.671 30.04C688.671 21.13 691.506 14.002 697.176 8.65599C702.846 3.30999 709.893 0.636995 718.317 0.636995C726.741 0.636995 733.788 3.30999 739.458 8.65599C745.29 14.002 748.206 21.13 748.206 30.04ZM729.981 30.04C729.981 26.476 728.847 23.641 726.579 21.535C724.473 19.267 721.719 18.133 718.317 18.133C715.077 18.133 712.323 19.267 710.055 21.535C707.949 23.641 706.896 26.476 706.896 30.04C706.896 33.442 707.949 36.277 710.055 38.545C712.323 40.813 715.077 41.947 718.317 41.947C721.719 41.947 724.473 40.813 726.579 38.545C728.847 36.277 729.981 33.442 729.981 30.04ZM952.721 117.52C962.603 119.626 970.541 124.567 976.535 132.343C982.529 139.957 985.526 148.705 985.526 158.587C985.526 172.843 980.504 184.183 970.46 192.607C960.578 200.869 946.727 205 928.907 205H849.446V34.414H926.234C943.568 34.414 957.095 38.383 966.815 46.321C976.697 54.259 981.638 65.032 981.638 78.64C981.638 88.684 978.965 97.027 973.619 103.669C968.435 110.311 961.469 114.928 952.721 117.52ZM890.999 103.426H918.215C925.019 103.426 930.203 101.968 933.767 99.052C937.493 95.974 939.356 91.519 939.356 85.687C939.356 79.855 937.493 75.4 933.767 72.322C930.203 69.244 925.019 67.705 918.215 67.705H890.999V103.426ZM921.617 171.466C928.583 171.466 933.929 169.927 937.655 166.849C941.543 163.609 943.487 158.992 943.487 152.998C943.487 147.004 941.462 142.306 937.412 138.904C933.524 135.502 928.097 133.801 921.131 133.801H890.999V171.466H921.617ZM1239.02 134.773C1239.02 138.175 1238.61 142.144 1237.8 146.68H1137.2C1138.34 155.59 1141.58 162.313 1146.92 166.849C1152.43 171.385 1158.91 173.653 1166.36 173.653C1172.84 173.653 1178.19 172.438 1182.4 170.008C1186.61 167.578 1189.61 164.257 1191.39 160.045H1235.62C1232.21 173.815 1225.49 185.074 1215.45 193.822C1205.4 202.57 1193.17 206.944 1178.75 206.944C1169.03 206.944 1160.29 205.081 1152.51 201.355C1144.9 197.467 1138.9 192.202 1134.53 185.56V205H1094.92V185.56C1090.55 192.04 1084.71 197.224 1077.42 201.112C1070.13 205 1061.87 206.944 1052.64 206.944C1041.46 206.944 1031.33 204.109 1022.26 198.439C1013.19 192.607 1005.98 184.426 1000.64 173.896C995.452 163.204 992.86 150.892 992.86 136.96C992.86 123.028 995.452 110.797 1000.64 100.267C1005.98 89.737 1013.27 81.637 1022.51 75.967C1031.74 70.297 1042.03 67.462 1053.37 67.462C1062.44 67.462 1070.54 69.244 1077.67 72.808C1084.79 76.372 1090.71 81.556 1095.41 88.36V69.406H1134.53V88.36C1144.41 74.428 1159.15 67.462 1178.75 67.462C1190.42 67.462 1200.79 70.297 1209.86 75.967C1219.09 81.475 1226.22 89.332 1231.24 99.538C1236.43 109.744 1239.02 121.489 1239.02 134.773ZM1196.49 125.539C1196.33 117.925 1193.5 111.931 1187.99 107.557C1182.48 103.021 1175.6 100.753 1167.33 100.753C1159.72 100.753 1153.16 102.859 1147.65 107.071C1142.14 111.283 1138.66 117.439 1137.2 125.539H1196.49ZM1064.79 170.737C1073.05 170.737 1080.02 167.74 1085.69 161.746C1091.52 155.752 1094.43 147.571 1094.43 137.203C1094.43 126.835 1091.52 118.654 1085.69 112.66C1080.02 106.666 1073.05 103.669 1064.79 103.669C1056.53 103.669 1049.48 106.666 1043.65 112.66C1037.98 118.492 1035.14 126.592 1035.14 136.96C1035.14 147.328 1037.98 155.59 1043.65 161.746C1049.48 167.74 1056.53 170.737 1064.79 170.737ZM1294.02 92.005C1298.88 84.553 1304.95 78.721 1312.24 74.509C1319.53 70.135 1327.63 67.948 1336.54 67.948V111.931H1325.12C1314.75 111.931 1306.98 114.199 1301.79 118.735C1296.61 123.109 1294.02 130.885 1294.02 142.063V205H1252.47V69.406H1294.02V92.005ZM1423.47 169.765V205H1402.33C1387.27 205 1375.52 201.355 1367.1 194.065C1358.67 186.613 1354.46 174.544 1354.46 157.858V103.912H1337.94V69.406H1354.46V36.358H1396.01V69.406H1423.23V103.912H1396.01V158.344C1396.01 162.394 1396.99 165.31 1398.93 167.092C1400.87 168.874 1404.11 169.765 1408.65 169.765H1423.47ZM1572.01 69.406V205H1530.45V186.532C1526.24 192.526 1520.49 197.386 1513.2 201.112C1506.07 204.676 1498.13 206.458 1489.39 206.458C1479.02 206.458 1469.87 204.19 1461.93 199.654C1453.99 194.956 1447.83 188.233 1443.46 179.485C1439.09 170.737 1436.9 160.45 1436.9 148.624V69.406H1478.21V143.035C1478.21 152.107 1480.56 159.154 1485.26 164.176C1489.95 169.198 1496.27 171.709 1504.21 171.709C1512.31 171.709 1518.71 169.198 1523.41 164.176C1528.1 159.154 1530.45 152.107 1530.45 143.035V69.406H1572.01ZM1634.9 92.005C1639.76 84.553 1645.84 78.721 1653.13 74.509C1660.42 70.135 1668.52 67.948 1677.43 67.948V111.931H1666.01C1655.64 111.931 1647.86 114.199 1642.68 118.735C1637.49 123.109 1634.9 130.885 1634.9 142.063V205H1593.35V69.406H1634.9V92.005Z" fill="#441D4F"/>
</svg>
