<svg width="33" height="34" viewBox="0 0 33 34" fill="none" xmlns="http://www.w3.org/2000/svg">
<path d="M26.6882 17.7083V7.08333C26.6882 6.69965 26.5561 6.36762 26.292 6.08724C26.0279 5.80686 25.7152 5.66667 25.3538 5.66667H15.3457C14.7619 5.66667 14.3518 5.95443 14.1155 6.52995C13.8792 7.13498 13.9765 7.65148 14.4074 8.07943L17.4099 11.2669L6.27589 23.0872C6.01179 23.3676 5.87974 23.6997 5.87974 24.0833C5.87974 24.467 6.01179 24.799 6.27589 25.0794L8.4026 27.3372C8.66671 27.6176 8.97946 27.7578 9.34086 27.7578C9.70226 27.7578 10.015 27.6176 10.2791 27.3372L21.4131 15.5169L24.4155 18.7044C24.6657 18.9848 24.9785 19.125 25.3538 19.125C25.5206 19.125 25.6943 19.0881 25.875 19.0143C26.4171 18.7635 26.6882 18.3281 26.6882 17.7083ZM32.0258 6.375V27.625C32.0258 29.3811 31.4385 30.8826 30.264 32.1296C29.0894 33.3765 27.6751 34 26.021 34H6.00484C4.35073 34 2.93639 33.3765 1.76184 32.1296C0.587279 30.8826 0 29.3811 0 27.625V6.375C0 4.61892 0.587279 3.1174 1.76184 1.87044C2.93639 0.623481 4.35073 0 6.00484 0H26.021C27.6751 0 29.0894 0.623481 30.264 1.87044C31.4385 3.1174 32.0258 4.61892 32.0258 6.375Z" fill="#161616"/>
</svg>
