<svg width="959" height="260" viewBox="0 0 959 260" fill="none" xmlns="http://www.w3.org/2000/svg">
<path opacity="0.03" d="M193.251 24.414V195H151.698V92.697L113.547 195H80.013L41.619 92.454V195H0.0660007V24.414H49.152L97.023 142.512L144.408 24.414H193.251ZM353.137 59.406L268.087 259.395H223.375L254.479 190.383L199.318 59.406H245.731L277.078 144.213L308.182 59.406H353.137ZM457.81 196.944C445.984 196.944 435.454 194.919 426.22 190.869C416.986 186.819 409.696 181.311 404.35 174.345C399.004 167.217 396.007 159.279 395.359 150.531H436.426C436.912 155.229 439.099 159.036 442.987 161.952C446.875 164.868 451.654 166.326 457.324 166.326C462.508 166.326 466.477 165.354 469.231 163.41C472.147 161.304 473.605 158.631 473.605 155.391C473.605 151.503 471.58 148.668 467.53 146.886C463.48 144.942 456.919 142.836 447.847 140.568C438.127 138.3 430.027 135.951 423.547 133.521C417.067 130.929 411.478 126.96 406.78 121.614C402.082 116.106 399.733 108.735 399.733 99.501C399.733 91.725 401.839 84.678 406.051 78.36C410.425 71.88 416.743 66.777 425.005 63.051C433.429 59.325 443.392 57.462 454.894 57.462C471.904 57.462 485.269 61.674 494.989 70.098C504.871 78.522 510.541 89.7 511.999 103.632H473.605C472.957 98.934 470.851 95.208 467.287 92.454C463.885 89.7 459.349 88.323 453.679 88.323C448.819 88.323 445.093 89.295 442.501 91.239C439.909 93.021 438.613 95.532 438.613 98.772C438.613 102.66 440.638 105.576 444.688 107.52C448.9 109.464 455.38 111.408 464.128 113.352C474.172 115.944 482.353 118.536 488.671 121.128C494.989 123.558 500.497 127.608 505.195 133.278C510.055 138.786 512.566 146.238 512.728 155.634C512.728 163.572 510.46 170.7 505.924 177.018C501.55 183.174 495.151 188.034 486.727 191.598C478.465 195.162 468.826 196.944 457.81 196.944ZM612.508 195L571.198 138.138V195H529.645V15.18H571.198V114.567L612.265 59.406H663.538L607.162 127.446L664.024 195H612.508ZM692.251 45.312C684.961 45.312 678.967 43.206 674.269 38.994C669.733 34.62 667.465 29.274 667.465 22.956C667.465 16.476 669.733 11.13 674.269 6.91799C678.967 2.54399 684.961 0.356986 692.251 0.356986C699.379 0.356986 705.211 2.54399 709.747 6.91799C714.445 11.13 716.794 16.476 716.794 22.956C716.794 29.274 714.445 34.62 709.747 38.994C705.211 43.206 699.379 45.312 692.251 45.312ZM712.906 59.406V195H671.353V59.406H712.906ZM776.067 15.18V195H734.514V15.18H776.067ZM839.229 15.18V195H797.676V15.18H839.229ZM899.717 160.737H958.523V195H853.304V161.952L909.68 93.669H853.79V59.406H957.308V92.454L899.717 160.737Z" fill="#441D4F"/>
</svg>
