<svg width="981" height="245" viewBox="0 0 981 245" fill="none" xmlns="http://www.w3.org/2000/svg">
<path opacity="0.03" d="M193.251 9.41399V180H151.698V77.697L113.547 180H80.013L41.619 77.454V180H0.0660007V9.41399H49.152L97.023 127.512L144.408 9.41399H193.251ZM353.137 44.406L268.087 244.395H223.375L254.479 175.383L199.318 44.406H245.731L277.078 129.213L308.182 44.406H353.137ZM597.292 44.406L560.599 180H514.672L493.288 92.034L471.175 180H425.491L388.555 44.406H430.108L449.305 141.363L472.147 44.406H516.13L539.215 140.877L558.169 44.406H597.292ZM666.355 181.944C653.071 181.944 641.083 179.109 630.391 173.439C619.861 167.769 611.518 159.669 605.362 149.139C599.368 138.609 596.371 126.297 596.371 112.203C596.371 98.271 599.449 86.04 605.605 75.51C611.761 64.818 620.185 56.637 630.877 50.967C641.569 45.297 653.557 42.462 666.841 42.462C680.125 42.462 692.113 45.297 702.805 50.967C713.497 56.637 721.921 64.818 728.077 75.51C734.233 86.04 737.311 98.271 737.311 112.203C737.311 126.135 734.152 138.447 727.834 149.139C721.678 159.669 713.173 167.769 702.319 173.439C691.627 179.109 679.639 181.944 666.355 181.944ZM666.355 145.98C674.293 145.98 681.016 143.064 686.524 137.232C692.194 131.4 695.029 123.057 695.029 112.203C695.029 101.349 692.275 93.006 686.767 87.174C681.421 81.342 674.779 78.426 666.841 78.426C658.741 78.426 652.018 81.342 646.672 87.174C641.326 92.844 638.653 101.187 638.653 112.203C638.653 123.057 641.245 131.4 646.429 137.232C651.775 143.064 658.417 145.98 666.355 145.98ZM792.404 67.005C797.264 59.553 803.339 53.721 810.629 49.509C817.919 45.135 826.019 42.948 834.929 42.948V86.931H823.508C813.14 86.931 805.364 89.199 800.18 93.735C794.996 98.109 792.404 105.885 792.404 117.063V180H750.851V44.406H792.404V67.005ZM929.148 180L887.838 123.138V180H846.285V0.179998H887.838V99.567L928.905 44.406H980.178L923.802 112.446L980.664 180H929.148Z" fill="#441D4F"/>
</svg>
