<svg width="390" height="3216" viewBox="0 0 390 3216" fill="none" xmlns="http://www.w3.org/2000/svg">
<path opacity="0.03" d="M-474.315 1551.11C-571.943 1669.28 -928.446 1767.12 -1094.49 1801.27L-1117 1806.93C-1109.5 2298.05 -1070.09 3266.58 -972.458 3211.77C-850.423 3143.26 -533.332 3012.51 -270.756 2984.23C-60.6953 2961.6 199.88 2838.19 303.91 2779.32C377.765 2739.51 530.075 2640.66 548.48 2563.72C571.487 2467.55 543.979 2233.73 498.466 2125.61C452.953 2017.5 425.945 1801.27 416.943 1630.93C409.741 1494.66 546.647 1206.24 616 1079.06L602 1C540.149 203.816 379.336 657.219 230.893 848.302C45.3394 1087.16 91.3486 1084.71 -107.709 1175.85C-306.766 1267 -352.279 1403.39 -474.315 1551.11Z" fill="#441D4F" stroke="black" stroke-width="3"/>
</svg>
