<svg width="1250" height="260" viewBox="0 0 1250 260" fill="none" xmlns="http://www.w3.org/2000/svg">
<path opacity="0.03" d="M87.06 195L51.582 130.605H41.619V195H0.0660007V24.414H69.807C83.253 24.414 94.674 26.763 104.07 31.461C113.628 36.159 120.756 42.639 125.454 50.901C130.152 59.001 132.501 68.073 132.501 78.117C132.501 89.457 129.261 99.582 122.781 108.492C116.463 117.402 107.067 123.72 94.593 127.446L133.959 195H87.06ZM41.619 101.202H67.377C74.991 101.202 80.661 99.339 84.387 95.613C88.275 91.887 90.219 86.622 90.219 79.818C90.219 73.338 88.275 68.235 84.387 64.509C80.661 60.783 74.991 58.92 67.377 58.92H41.619V101.202ZM141.819 126.96C141.819 113.028 144.411 100.797 149.595 90.267C154.941 79.737 162.15 71.637 171.222 65.967C180.294 60.297 190.419 57.462 201.597 57.462C211.155 57.462 219.498 59.406 226.626 63.294C233.916 67.182 239.505 72.285 243.393 78.603V59.406H284.946V195H243.393V175.803C239.343 182.121 233.673 187.224 226.383 191.112C219.255 195 210.912 196.944 201.354 196.944C190.338 196.944 180.294 194.109 171.222 188.439C162.15 182.607 154.941 174.426 149.595 163.896C144.411 153.204 141.819 140.892 141.819 126.96ZM243.393 127.203C243.393 116.835 240.477 108.654 234.645 102.66C228.975 96.666 222.009 93.669 213.747 93.669C205.485 93.669 198.438 96.666 192.606 102.66C186.936 108.492 184.101 116.592 184.101 126.96C184.101 137.328 186.936 145.59 192.606 151.746C198.438 157.74 205.485 160.737 213.747 160.737C222.009 160.737 228.975 157.74 234.645 151.746C240.477 145.752 243.393 137.571 243.393 127.203ZM327.4 45.312C320.11 45.312 314.116 43.206 309.418 38.994C304.882 34.62 302.614 29.274 302.614 22.956C302.614 16.476 304.882 11.13 309.418 6.91799C314.116 2.54399 320.11 0.356986 327.4 0.356986C334.528 0.356986 340.36 2.54399 344.896 6.91799C349.594 11.13 351.943 16.476 351.943 22.956C351.943 29.274 349.594 34.62 344.896 38.994C340.36 43.206 334.528 45.312 327.4 45.312ZM348.055 59.406V195H306.502V59.406H348.055ZM452.283 57.948C468.159 57.948 480.795 63.132 490.191 73.5C499.749 83.706 504.528 97.8 504.528 115.782V195H463.218V121.371C463.218 112.299 460.869 105.252 456.171 100.23C451.473 95.208 445.155 92.697 437.217 92.697C429.279 92.697 422.961 95.208 418.263 100.23C413.565 105.252 411.216 112.299 411.216 121.371V195H369.663V59.406H411.216V77.388C415.428 71.394 421.098 66.696 428.226 63.294C435.354 59.73 443.373 57.948 452.283 57.948ZM663.409 59.406L578.359 259.395H533.647L564.751 190.383L509.59 59.406H556.003L587.35 144.213L618.454 59.406H663.409ZM733.839 24.414C751.821 24.414 767.535 27.978 780.981 35.106C794.427 42.234 804.795 52.278 812.085 65.238C819.537 78.036 823.263 92.859 823.263 109.707C823.263 126.393 819.537 141.216 812.085 154.176C804.795 167.136 794.346 177.18 780.738 184.308C767.292 191.436 751.659 195 733.839 195H669.93V24.414H733.839ZM731.166 159.036C746.88 159.036 759.111 154.743 767.859 146.157C776.607 137.571 780.981 125.421 780.981 109.707C780.981 93.993 776.607 81.762 767.859 73.014C759.111 64.266 746.88 59.892 731.166 59.892H711.483V159.036H731.166ZM829.717 126.96C829.717 113.028 832.309 100.797 837.493 90.267C842.839 79.737 850.048 71.637 859.12 65.967C868.192 60.297 878.317 57.462 889.495 57.462C899.053 57.462 907.396 59.406 914.524 63.294C921.814 67.182 927.403 72.285 931.291 78.603V59.406H972.844V195H931.291V175.803C927.241 182.121 921.571 187.224 914.281 191.112C907.153 195 898.81 196.944 889.252 196.944C878.236 196.944 868.192 194.109 859.12 188.439C850.048 182.607 842.839 174.426 837.493 163.896C832.309 153.204 829.717 140.892 829.717 126.96ZM931.291 127.203C931.291 116.835 928.375 108.654 922.543 102.66C916.873 96.666 909.907 93.669 901.645 93.669C893.383 93.669 886.336 96.666 880.504 102.66C874.834 108.492 871.999 116.592 871.999 126.96C871.999 137.328 874.834 145.59 880.504 151.746C886.336 157.74 893.383 160.737 901.645 160.737C909.907 160.737 916.873 157.74 922.543 151.746C928.375 145.752 931.291 137.571 931.291 127.203ZM1132.91 59.406L1047.86 259.395H1003.15L1034.25 190.383L979.092 59.406H1025.51L1056.85 144.213L1087.96 59.406H1132.91ZM1194.59 196.944C1182.77 196.944 1172.24 194.919 1163 190.869C1153.77 186.819 1146.48 181.311 1141.13 174.345C1135.79 167.217 1132.79 159.279 1132.14 150.531H1173.21C1173.7 155.229 1175.88 159.036 1179.77 161.952C1183.66 164.868 1188.44 166.326 1194.11 166.326C1199.29 166.326 1203.26 165.354 1206.01 163.41C1208.93 161.304 1210.39 158.631 1210.39 155.391C1210.39 151.503 1208.36 148.668 1204.31 146.886C1200.26 144.942 1193.7 142.836 1184.63 140.568C1174.91 138.3 1166.81 135.951 1160.33 133.521C1153.85 130.929 1148.26 126.96 1143.56 121.614C1138.87 116.106 1136.52 108.735 1136.52 99.501C1136.52 91.725 1138.62 84.678 1142.83 78.36C1147.21 71.88 1153.53 66.777 1161.79 63.051C1170.21 59.325 1180.18 57.462 1191.68 57.462C1208.69 57.462 1222.05 61.674 1231.77 70.098C1241.65 78.522 1247.32 89.7 1248.78 103.632H1210.39C1209.74 98.934 1207.63 95.208 1204.07 92.454C1200.67 89.7 1196.13 88.323 1190.46 88.323C1185.6 88.323 1181.88 89.295 1179.28 91.239C1176.69 93.021 1175.4 95.532 1175.4 98.772C1175.4 102.66 1177.42 105.576 1181.47 107.52C1185.68 109.464 1192.16 111.408 1200.91 113.352C1210.96 115.944 1219.14 118.536 1225.45 121.128C1231.77 123.558 1237.28 127.608 1241.98 133.278C1246.84 138.786 1249.35 146.238 1249.51 155.634C1249.51 163.572 1247.24 170.7 1242.71 177.018C1238.33 183.174 1231.93 188.034 1223.51 191.598C1215.25 195.162 1205.61 196.944 1194.59 196.944Z" fill="#441D4F"/>
</svg>
