<svg width="252" height="252" viewBox="0 0 252 252" fill="none" xmlns="http://www.w3.org/2000/svg">
<path opacity="0.05" fill-rule="evenodd" clip-rule="evenodd" d="M251.46 226.716L24.7442 251.46L0 24.7441L226.716 -2.76077e-05L251.46 226.716ZM190.448 101.198L188.529 83.6139C185.492 82.6406 168.391 79.7067 155.835 86.1359C137.749 95.3965 140.795 117.016 148.885 124.748C159.368 134.766 182.899 136.36 180.304 147.599C178.96 153.42 169.935 155.392 161.68 154.388C153.992 153.454 146.989 149.725 146.989 149.725L149.021 168.343C149.021 168.343 155.856 171.231 163.857 171.223C174.113 171.212 186.594 167.757 192.342 161.404C202.574 150.095 201.879 127.592 179.275 119.575C160.464 112.903 160.49 110.411 160.133 105.975C159.654 100.033 171.692 95.0301 190.448 101.198ZM88.6993 62.3693C103.624 61.2637 126.222 65.7314 129.411 94.9507C132.6 124.17 106.913 136.676 82.2909 137.249L86.8063 178.622L68.6341 180.605L56.16 66.3127C56.16 66.3127 73.7739 63.4749 88.6988 62.3693L88.6993 62.3693ZM99.4436 117.061C106.967 113.346 111.39 106.644 110.348 97.0963C109.243 86.9733 103.312 80.6839 95.1732 79.6127C86.36 78.4521 76.132 80.8194 76.132 80.8194L80.4837 120.691C80.4837 120.691 94.8505 119.328 99.4436 117.061Z" fill="black"/>
</svg>
