<svg width="315" height="107" viewBox="0 0 315 107" fill="none" xmlns="http://www.w3.org/2000/svg">
<path opacity="0.03" d="M0.851 53.256C0.851 43.064 3.056 33.999 7.466 26.061C11.876 18.025 18.001 11.802 25.841 7.39199C33.779 2.88399 42.746 0.629994 52.742 0.629994C64.992 0.629994 75.478 3.86399 84.2 10.332C92.922 16.8 98.753 25.62 101.693 36.792H74.057C71.999 32.48 69.059 29.197 65.237 26.943C61.513 24.689 57.25 23.562 52.448 23.562C44.706 23.562 38.434 26.257 33.632 31.647C28.83 37.037 26.429 44.24 26.429 53.256C26.429 62.272 28.83 69.475 33.632 74.865C38.434 80.255 44.706 82.95 52.448 82.95C57.25 82.95 61.513 81.823 65.237 79.569C69.059 77.315 71.999 74.032 74.057 69.72H101.693C98.753 80.892 92.922 89.712 84.2 96.18C75.478 102.55 64.992 105.735 52.742 105.735C42.746 105.735 33.779 103.53 25.841 99.12C18.001 94.612 11.876 88.389 7.466 80.451C3.056 72.513 0.851 63.448 0.851 53.256ZM149.28 106.029C141.734 106.029 134.972 104.804 128.994 102.354C123.016 99.904 118.214 96.278 114.588 91.476C111.06 86.674 109.198 80.892 109.002 74.13H135.756C136.148 77.952 137.471 80.892 139.725 82.95C141.979 84.91 144.919 85.89 148.545 85.89C152.269 85.89 155.209 85.057 157.365 83.391C159.521 81.627 160.599 79.226 160.599 76.188C160.599 73.64 159.717 71.533 157.953 69.867C156.287 68.201 154.18 66.829 151.632 65.751C149.182 64.673 145.654 63.448 141.048 62.076C134.384 60.018 128.945 57.96 124.731 55.902C120.517 53.844 116.891 50.806 113.853 46.788C110.815 42.77 109.296 37.527 109.296 31.059C109.296 21.455 112.775 13.958 119.733 8.568C126.691 3.08 135.756 0.335998 146.928 0.335998C158.296 0.335998 167.459 3.08 174.417 8.568C181.375 13.958 185.099 21.504 185.589 31.206H158.394C158.198 27.874 156.973 25.277 154.719 23.415C152.465 21.455 149.574 20.475 146.046 20.475C143.008 20.475 140.558 21.308 138.696 22.974C136.834 24.542 135.903 26.845 135.903 29.883C135.903 33.215 137.471 35.812 140.607 37.674C143.743 39.536 148.643 41.545 155.307 43.701C161.971 45.955 167.361 48.111 171.477 50.169C175.691 52.227 179.317 55.216 182.355 59.136C185.393 63.056 186.912 68.103 186.912 74.277C186.912 80.157 185.393 85.498 182.355 90.3C179.415 95.102 175.103 98.924 169.419 101.766C163.735 104.608 157.022 106.029 149.28 106.029ZM314.101 1.806V105H288.964V43.113L265.885 105H245.599L222.373 42.966V105H197.236V1.806H226.93L255.889 73.248L284.554 1.806H314.101Z" fill="#441D4F"/>
</svg>
