<svg xmlns="http://www.w3.org/2000/svg" width="131" height="59" fill="none" xmlns:v="https://vecta.io/nano"><path d="M18.061 31.025c-2.505.442-4.843 1.176-7.013 2.2s-4.276 2.223-6.316 3.597c-.528.348-.979.425-1.351.231-.349-.199-.553-.431-.613-.696.065-.495.281-.936.648-1.323 4.385-3.525 9.114-5.535 14.187-6.029.257.017.49.154.7.41.229.226.341.441.336.645a2.09 2.09 0 0 1-.077.662c-.064.166-.23.267-.5.303zM15.797 44.78c.06.265.019.527-.125.787-.125.231-.314.4-.568.508-.465.181-.796.168-.995-.039s-.346-.465-.441-.773l-1.247-4.991c-.406-1.678-.861-3.346-1.364-5.002-.022-.096-.059-.202-.11-.316-.057-.139-.087-.271-.09-.397-.009-.15.012-.281.062-.394.074-.118.202-.223.384-.315.531-.222.95-.216 1.256.018.301.21.481.447.541.712a64.33 64.33 0 0 1 1.533 5.078 93.3 93.3 0 0 1 1.163 5.124zm8.649-16.913a60.49 60.49 0 0 1 .406 1.957l.508 2.237a77.99 77.99 0 0 1 .577 2.373l.605 2.329c.131-.536.314-1.07.546-1.604a7.3 7.3 0 0 1 .832-1.517c.351-.459.73-.849 1.138-1.169a3.83 3.83 0 0 1 1.478-.677 2.45 2.45 0 0 1 1.719.217c.569.276 1.095.7 1.579 1.273.503.544.965 1.185 1.385 1.924a19.58 19.58 0 0 1 1.118 2.25c.349.756.644 1.498.885 2.227l.606 1.835c.087.385.062.719-.076 1.004s-.339.456-.604.517c-.192.044-.46-.022-.804-.197-.325-.205-.588-.474-.79-.807-.138-.272-.306-.677-.503-1.214l-.654-1.711a28.37 28.37 0 0 0-.803-1.867c-.292-.617-.603-1.153-.934-1.609-.313-.486-.646-.84-1-1.063s-.716-.255-1.084-.095c-.574.257-1.008.798-1.301 1.623-.269.82-.468 1.725-.597 2.716a28.83 28.83 0 0 0-.163 2.959l.083 2.371c.002.455-.062.785-.192.992a.71.71 0 0 1-.456.331c-.192.044-.395-.012-.607-.166a5.82 5.82 0 0 1-.589-.587 13 13 0 0 1-.521-.792 4.58 4.58 0 0 1-.361-.753l-1.133-3.651-1-3.567-.872-3.672c-.29-1.275-.574-2.639-.854-4.094-.273-1.203.037-1.842.93-1.919.3-.017.601.142.905.477a2.33 2.33 0 0 1 .595 1.117zm19.99-3.212c.007.251-.132.422-.415.512s-.521.156-.714.2a18.09 18.09 0 0 0-1.835.607 17.93 17.93 0 0 0-1.886.884c-.267.162-.588.197-.963.105s-.656-.382-.843-.871c-.044-.192-.007-.365.11-.518a2.67 2.67 0 0 1 .431-.439c.28-.215.625-.42 1.037-.615a8.47 8.47 0 0 1 1.242-.548c.446-.152.876-.262 1.291-.331.409-.093.754-.133 1.035-.121.412.033.754.145 1.025.336.295.186.457.453.485.8zm1.899 12.203c.256.347.435.749.539 1.206.122.428.07.756-.156.984-.288.293-.651.363-1.091.21a2.32 2.32 0 0 1-1.087-.777c-.379-.445-.723-1.012-1.031-1.701a24.95 24.95 0 0 1-.825-2.127c-.236-.705-.437-1.368-.603-1.988l-.319-1.407c-.052-.342-.027-.677.076-1.004s.281-.544.535-.653c.438-.074.834.051 1.186.376.347.301.571.73.672 1.289a32.86 32.86 0 0 0 .364 1.435 18.1 18.1 0 0 0 .505 1.555 30.5 30.5 0 0 0 .605 1.494c.205.459.416.829.631 1.109zm9.681-10.697l-.316-.725c-.103-.23-.258-.359-.467-.387a2.69 2.69 0 0 0-1.307.259c-.435.2-.821.452-1.156.756-.341.28-.614.582-.819.907-.21.301-.305.55-.286.748.01.377.185.704.526.981s.802.526 1.384.748l2.986.953c1.034.322 1.927.688 2.678 1.099s1.311.929 1.681 1.553c.388.595.509 1.352.364 2.27-.117.709-.49 1.351-1.119 1.924s-1.349 1.078-2.16 1.515c-.817.413-1.647.766-2.491 1.059-.85.269-1.575.472-2.176.608-.144.033-.336.026-.574-.021a8.49 8.49 0 0 1-.667-.266 8.51 8.51 0 0 1-.567-.326c-.159-.141-.251-.272-.279-.392-.098-.433.026-.777.372-1.033s.724-.43 1.133-.523c.577-.131 1.185-.294 1.824-.49a21.92 21.92 0 0 0 1.847-.723c.569-.281 1.069-.584 1.501-.91s.706-.679.822-1.059c.103-.327-.082-.639-.554-.937-.454-.327-1.042-.636-1.766-.927a22.31 22.31 0 0 0-2.271-.812c-.79-.251-1.476-.487-2.058-.709s-1.105-.521-1.569-.896c-.47-.399-.832-.937-1.087-1.612-.166-.62-.17-1.251-.013-1.894s.416-1.233.774-1.769a5.78 5.78 0 0 1 1.378-1.451c.541-.401 1.113-.67 1.714-.807 1.045-.187 1.965-.092 2.759.284.788.352 1.357 1.02 1.707 2.003.077.337.079.627.008.871-.047.238-.197.412-.451.52-.326.125-.611.151-.855.08-.225-.101-.374-.256-.448-.468zm24.873-4.776c.252.221.509.517.771.887a5.58 5.58 0 0 1 .703 1.092l.953 2.022a50 50 0 0 1 1.074 2.222c.378.774.735 1.566 1.071 2.375a59.53 59.53 0 0 1 .982 2.319 6.91 6.91 0 0 1 .436 3.088 6.83 6.83 0 0 1-.881 2.97c-.523.928-1.249 1.738-2.18 2.43s-2.04 1.209-3.328 1.552c-.294.041-.628-.035-1-.228-.367-.17-.581-.387-.641-.651-.084-.259-.013-.503.213-.731a3.13 3.13 0 0 1 .8-.485c.494-.163.987-.389 1.478-.677.52-.27.989-.604 1.404-1.002a6.2 6.2 0 0 0 1.061-1.341c.316-.502.52-1.054.61-1.656.07-.471.034-1.02-.108-1.645-.147-.649-.34-1.276-.579-1.88a13.17 13.17 0 0 0-.726-1.694c-.251-.55-.458-.958-.62-1.225-.13.207-.306.436-.527.689a5.63 5.63 0 0 1-.707.73 4.61 4.61 0 0 1-.956.634 3.56 3.56 0 0 1-1.094.362c-.414.069-.832.012-1.253-.171-.397-.188-.774-.457-1.131-.805-.363-.373-.691-.817-.985-1.332-.27-.521-.473-1.081-.61-1.683-.28-1.454-.208-2.811.214-4.07.441-1.289 1.348-2.418 2.721-3.388.115-.051.266-.111.453-.179.211-.073.428-.122.65-.148.216-.049.426-.072.63-.067.227-.001.424.03.59.094.308.132.503.379.585.74s.058.645-.072.851zm-3.424 5.976a6.6 6.6 0 0 0 .277.886c.119.302.327.495.625.579.327.103.681.048 1.063-.165a3.39 3.39 0 0 0 1.051-.884c.277-.341.428-.679.453-1.013.044-.364-.057-.809-.303-1.335l-.79-1.642c-.281-.569-.5-1.088-.657-1.558-.256.21-.522.485-.799.826-.253.336-.465.738-.636 1.207a6.8 6.8 0 0 0-.391 1.455 4.9 4.9 0 0 0 .108 1.645zm13.286-8.974c.003.682.023 1.437.059 2.263.031.802.092 1.573.183 2.311.116.733.263 1.382.442 1.948.203.561.453.934.748 1.12.425-.021.856-.296 1.293-.825.431-.553.825-1.212 1.183-1.976a16.08 16.08 0 0 0 .896-2.404c.234-.863.37-1.602.407-2.217.031-.311.047-.63.048-.959s-.037-.662-.113-.999c-.044-.193.036-.4.238-.623.221-.253.413-.41.576-.472.115-.051.252-.057.413-.018.185.034.354.109.507.226.172.088.327.217.467.387.159.141.26.308.303.5.212.711.464 1.488.757 2.332l.915 2.524 1.006 2.427c.33.785.641 1.486.933 2.103.132.248.129.565-.012.951s-.334.645-.582.777c-.205.097-.439.125-.702.084-.238-.047-.45-.201-.636-.463-.197-.309-.41-.691-.639-1.145l-.641-1.486-.569-1.502c-.187-.489-.331-.899-.431-1.23-.213.731-.496 1.491-.848 2.28-.334.759-.726 1.48-1.178 2.165-.433.655-.927 1.21-1.481 1.664-.536.425-1.137.675-1.803.751-.989.098-1.928-.637-2.815-2.206-.345-.63-.611-1.354-.797-2.172a27.26 27.26 0 0 1-.369-2.458c-.065-.845-.108-1.645-.127-2.399l.031-1.866c.004-.203.062-.393.174-.571.106-.201.261-.3.464-.295.377-.01.751.133 1.122.428.395.29.588.638.579 1.045zm23.988-6.168l1.11 3.884c.396 1.301.718 2.607.965 3.916.241 1.286.393 2.567.455 3.843a15.29 15.29 0 0 1-.207 3.765c-.23 1.216-.645 2.397-1.244 3.545-.575 1.143-1.389 2.238-2.441 3.286-.165.164-.365.285-.6.364a2.02 2.02 0 0 1-.658.111c-.222.025-.428.009-.618-.049-.185-.034-.318-.118-.399-.251-.121-.2-.139-.449-.055-.746s.262-.629.533-.994c.878-1.034 1.577-2.078 2.097-3.132s.878-2.147 1.076-3.28.221-2.314.068-3.544c-.134-1.26-.438-2.594-.91-4.005-.206.426-.459.876-.756 1.348s-.627.914-.989 1.325a10.85 10.85 0 0 1-1.163 1.061c-.413.296-.825.491-1.233.584-.337.076-.69.081-1.06.013s-.769-.268-1.199-.6c-.499-.418-.976-.904-1.431-1.458-.436-.584-.831-1.152-1.184-1.704s-.656-1.053-.91-1.501c-.229-.454-.378-.774-.446-.961-.102-.23-.154-.458-.155-.686s.125-.395.379-.503c.344-.154.686-.207 1.026-.157s.6.193.781.43a27.74 27.74 0 0 1 .675 1.137 15.67 15.67 0 0 0 .991 1.52c.36.475.719.886 1.077 1.235.381.343.728.48 1.041.409.361-.082.741-.358 1.14-.828.423-.476.798-1.054 1.124-1.735a9.2 9.2 0 0 0 .72-2.174c.173-.798.183-1.534.03-2.207a2.18 2.18 0 0 1-.043-.521 2.2 2.2 0 0 1 .094-.59c.053-.214.125-.395.218-.543.112-.177.237-.294.376-.351a1.24 1.24 0 0 1 1.084.095c.367.17.581.387.641.651zm8.724-9.911l.027 3.295.092 3.242c.042 1.078.133 2.145.271 3.201s.362 2.093.669 3.111a1.09 1.09 0 0 1 .028.79c-.066.268-.175.457-.327.567-.485.313-.9.268-1.245-.135a17.84 17.84 0 0 1-1.296-3.538c-.273-1.203-.459-2.413-.559-3.629-.075-1.222-.099-2.444-.073-3.664l.143-3.713c.011-.508.144-.817.397-.925s.512-.141.775-.1c.388.038.671.227.849.566s.261.649.249.93zm2.965 19.739c.06.265.106.634.138 1.107a5.26 5.26 0 0 1-.01 1.292c-.033.412-.143.766-.329 1.061-.162.29-.427.401-.797.333-.22-.077-.464-.261-.733-.555s-.424-.587-.465-.881c-.083-.588-.091-1.181-.025-1.778s.243-.991.529-1.182c.133-.081.289-.116.469-.106a1.28 1.28 0 0 1 .562.138c.166.063.314.156.443.279.123.098.196.196.218.292z" fill="#fff"/></svg>