<svg width="256" height="162" viewBox="0 0 256 162" fill="none" xmlns="http://www.w3.org/2000/svg">
<path d="M138.387 42.1847C135.875 42.5833 133.525 43.2756 131.337 44.2617C129.149 45.2477 127.023 46.4099 124.959 47.748C124.425 48.0864 123.973 48.1555 123.604 47.9554C123.259 47.7503 123.058 47.515 123.003 47.2494C123.076 46.7553 123.3 46.318 123.674 45.9375C128.12 42.4893 132.883 40.5623 137.964 40.1564C138.22 40.1784 138.451 40.3192 138.657 40.5787C138.881 40.809 138.99 41.0258 138.982 41.229C138.984 41.4806 138.954 41.7009 138.893 41.8901C138.827 42.0552 138.658 42.1533 138.387 42.1847ZM135.884 55.899C135.939 56.1646 135.893 56.4262 135.745 56.6839C135.617 56.9123 135.425 57.0784 135.169 57.1822C134.701 57.3555 134.37 57.3365 134.174 57.1253C133.979 56.9141 133.837 56.6541 133.747 56.3452C133.37 54.66 132.983 52.9895 132.587 51.3335C132.21 49.6483 131.785 47.9732 131.311 46.3083C131.291 46.2117 131.256 46.1055 131.207 45.9898C131.152 45.85 131.124 45.7172 131.123 45.5914C131.117 45.4415 131.14 45.3107 131.193 45.199C131.269 45.0822 131.399 44.9796 131.582 44.8909C132.117 44.6784 132.536 44.6918 132.838 44.9311C133.135 45.1463 133.311 45.3867 133.366 45.6523C133.922 47.3504 134.404 49.0516 134.81 50.7559C135.216 52.4602 135.574 54.1745 135.884 55.899ZM144.826 39.1392C144.947 39.7187 145.071 40.3732 145.198 41.1026C145.349 41.827 145.506 42.5755 145.667 43.3482C145.852 44.1158 146.031 44.9101 146.202 45.7311C146.398 46.547 146.586 47.3267 146.766 48.0701C146.907 47.5368 147.098 47.0055 147.341 46.4761C147.578 45.9226 147.864 45.4219 148.199 44.974C148.558 44.521 148.944 44.138 149.357 43.8249C149.795 43.5067 150.291 43.2897 150.847 43.1737C151.45 43.0476 152.022 43.1299 152.561 43.4204C153.125 43.7059 153.644 44.1393 154.118 44.7207C154.611 45.2728 155.062 45.9221 155.47 46.6685C155.872 47.3907 156.232 48.1472 156.548 48.9379C156.884 49.6994 157.166 50.4469 157.395 51.1803C157.618 51.8895 157.81 52.5047 157.969 53.0258C158.05 53.4122 158.019 53.7462 157.876 54.028C157.733 54.3098 157.529 54.4785 157.263 54.5339C157.07 54.5743 156.804 54.504 156.463 54.323C156.142 54.1129 155.884 53.8393 155.687 53.5023C155.554 53.2277 155.394 52.8203 155.205 52.2801C155.017 51.7398 154.809 51.1659 154.581 50.5583C154.348 49.9265 154.091 49.2998 153.81 48.6781C153.529 48.0564 153.227 47.5147 152.904 47.053C152.6 46.5622 152.273 46.2021 151.923 45.9729C151.572 45.7436 151.212 45.7056 150.84 45.8587C150.262 46.1055 149.819 46.6389 149.511 47.4591C149.228 48.2743 149.013 49.1759 148.867 50.164C148.745 51.1471 148.673 52.1322 148.652 53.1193C148.656 54.1013 148.67 54.8921 148.694 55.4918C148.688 55.9466 148.619 56.2761 148.485 56.4805C148.37 56.6556 148.216 56.7633 148.023 56.8037C147.83 56.844 147.629 56.7852 147.419 56.6274C147.234 56.4644 147.041 56.2653 146.841 56.03C146.66 55.7654 146.491 55.4984 146.334 55.2288C146.171 54.935 146.056 54.682 145.986 54.4698C145.593 53.1911 145.237 51.9678 144.917 50.7998C144.593 49.6076 144.28 48.4129 143.98 47.2157C143.704 46.0134 143.434 44.7845 143.172 43.5289C142.905 42.2492 142.644 40.8799 142.39 39.4211C142.138 38.2138 142.459 37.5798 143.354 37.519C143.653 37.5068 143.952 37.6711 144.25 38.0121C144.543 38.3289 144.735 38.7046 144.826 39.1392ZM164.869 36.2767C164.871 36.5283 164.73 36.6963 164.445 36.781C164.161 36.8657 163.922 36.9281 163.728 36.9685C163.13 37.1187 162.515 37.3101 161.883 37.5429C161.275 37.7705 160.642 38.0541 159.982 38.3935C159.712 38.5506 159.391 38.5799 159.017 38.4815C158.644 38.383 158.368 38.0878 158.19 37.5959C158.149 37.4027 158.189 37.2307 158.309 37.0797C158.428 36.9287 158.575 36.7848 158.748 36.6478C159.031 36.4374 159.38 36.2385 159.795 36.0512C160.204 35.8397 160.621 35.6644 161.046 35.5254C161.495 35.3813 161.927 35.2784 162.342 35.2169C162.753 35.1312 163.098 35.0968 163.379 35.1138C163.79 35.1538 164.13 35.2719 164.398 35.468C164.69 35.659 164.847 35.9286 164.869 36.2767ZM166.555 48.5115C166.804 48.8625 166.977 49.2674 167.073 49.7262C167.188 50.1558 167.13 50.4828 166.9 50.7073C166.607 50.9952 166.242 51.0588 165.806 50.898C165.369 50.7372 165.011 50.4717 164.732 50.1016C164.361 49.65 164.027 49.0771 163.731 48.383C163.43 47.6648 163.167 46.951 162.943 46.2418C162.72 45.5325 162.53 44.8665 162.375 44.2438C162.244 43.616 162.146 43.1451 162.08 42.8312C162.034 42.4881 162.065 42.1541 162.173 41.829C162.282 41.504 162.464 41.2896 162.719 41.1858C163.159 41.1192 163.552 41.2513 163.898 41.5822C164.239 41.8889 164.456 42.3225 164.548 42.8829C164.638 43.3175 164.751 43.7979 164.886 44.3241C165.022 44.8502 165.181 45.3714 165.364 45.8875C165.547 46.4035 165.74 46.905 165.943 47.3919C166.14 47.8547 166.344 48.2279 166.555 48.5115ZM176.421 37.9844C176.317 37.7289 176.216 37.4854 176.117 37.2541C176.019 37.0227 175.865 36.891 175.657 36.8589C175.221 36.8238 174.784 36.9025 174.345 37.0949C173.907 37.2873 173.517 37.5325 173.176 37.8305C172.83 38.1043 172.552 38.4018 172.342 38.7228C172.127 39.0198 172.027 39.2673 172.043 39.4655C172.047 39.8428 172.216 40.1728 172.552 40.4554C172.889 40.7379 173.346 40.9953 173.923 41.2275C174.874 41.5581 175.864 41.8932 176.892 42.2328C177.921 42.5724 178.807 42.9543 179.551 43.3786C180.295 43.8028 180.846 44.3303 181.204 44.961C181.582 45.5625 181.69 46.3211 181.528 47.2368C181.399 47.9442 181.015 48.5788 180.376 49.1405C179.737 49.7023 179.009 50.1946 178.19 50.6176C177.366 51.0164 176.529 51.3549 175.68 51.633C174.826 51.887 174.097 52.077 173.494 52.203C173.349 52.2333 173.158 52.2228 172.92 52.1716C172.702 52.0912 172.481 51.9987 172.257 51.8942C172.058 51.7846 171.871 51.6725 171.696 51.5579C171.54 51.4141 171.449 51.2818 171.424 51.1611C171.333 50.7265 171.463 50.3843 171.814 50.1346C172.165 49.8849 172.546 49.7172 172.957 49.6315C173.536 49.5105 174.147 49.3578 174.789 49.1733C175.45 48.9597 176.069 48.7295 176.648 48.4827C177.221 48.2118 177.727 47.9173 178.164 47.5991C178.602 47.2809 178.882 46.9327 179.004 46.5543C179.113 46.2293 178.934 45.9139 178.467 45.6082C178.019 45.2734 177.436 44.9542 176.717 44.6507C176.023 44.3421 175.27 44.0582 174.46 43.799C173.674 43.5347 172.992 43.2865 172.415 43.0544C171.837 42.8222 171.319 42.5146 170.861 42.1314C170.398 41.7242 170.045 41.1805 169.803 40.5004C169.647 39.8777 169.654 39.2463 169.823 38.6063C169.992 37.9663 170.26 37.3811 170.628 36.8506C171.015 36.291 171.483 35.8154 172.031 35.4237C172.579 35.0321 173.155 34.7732 173.759 34.6472C174.807 34.4786 175.725 34.5894 176.512 34.9794C177.294 35.3453 177.851 36.0227 178.183 37.0116C178.254 37.3497 178.252 37.6399 178.176 37.8825C178.125 38.1199 177.972 38.2906 177.716 38.3943C177.388 38.5132 177.103 38.535 176.86 38.4596C176.637 38.3551 176.491 38.1967 176.421 37.9844ZM201.374 33.6431C201.622 33.8684 201.874 34.1686 202.129 34.5438C202.403 34.8898 202.631 35.2579 202.813 35.6482C203.094 36.2699 203.4 36.9495 203.73 37.6868C204.08 38.395 204.425 39.1419 204.765 39.9276C205.13 40.7082 205.473 41.506 205.794 42.3208C206.139 43.1306 206.453 43.9092 206.735 44.6567C207.102 45.6889 207.229 46.7206 207.117 47.752C207.034 48.8025 206.723 49.7872 206.184 50.7061C205.645 51.625 204.905 52.4222 203.962 53.0978C203.02 53.7734 201.902 54.2714 200.608 54.592C200.313 54.6284 199.981 54.5465 199.612 54.3465C199.247 54.1706 199.037 53.9498 198.982 53.6842C198.902 53.4236 198.978 53.1811 199.208 52.9566C199.467 52.7513 199.737 52.5942 200.017 52.4854C200.514 52.3312 201.01 52.1141 201.506 51.8342C202.031 51.5733 202.505 51.2476 202.927 50.857C203.35 50.4664 203.711 50.0256 204.012 49.5344C204.337 49.0382 204.55 48.4897 204.651 47.889C204.729 47.4191 204.703 46.8702 204.572 46.2424C204.436 45.5905 204.254 44.9607 204.026 44.3531C203.822 43.7404 203.59 43.1715 203.329 42.6464C203.088 42.0922 202.888 41.6802 202.731 41.4106C202.597 41.615 202.418 41.8414 202.193 42.0901C201.992 42.3336 201.752 42.5727 201.473 42.8073C201.194 43.0419 200.872 43.2478 200.506 43.425C200.164 43.5973 199.797 43.7116 199.406 43.7682C198.99 43.8297 198.574 43.7655 198.156 43.5756C197.763 43.3805 197.39 43.1055 197.039 42.7505C196.682 42.3713 196.362 41.9217 196.077 41.4017C195.816 40.8766 195.623 40.3122 195.496 39.7086C195.242 38.2497 195.337 36.8944 195.781 35.6425C196.245 34.3614 197.171 33.2481 198.561 32.3027C198.677 32.2533 198.829 32.1964 199.017 32.1319C199.229 32.0624 199.447 32.017 199.669 31.9958C199.886 31.9504 200.097 31.9317 200.3 31.9397C200.527 31.9426 200.723 31.9772 200.889 32.0435C201.194 32.1812 201.385 32.4312 201.461 32.7934C201.536 33.1555 201.507 33.4388 201.374 33.6431ZM197.846 39.558C197.902 39.8236 197.989 40.1204 198.108 40.4484C198.222 40.7522 198.427 40.9488 198.722 41.0382C199.047 41.1467 199.403 41.0978 199.788 40.8913C200.197 40.6798 200.553 40.3914 200.855 40.026C201.137 39.6898 201.294 39.3547 201.325 39.0206C201.375 38.6574 201.282 38.2107 201.045 37.6805C200.808 37.1504 200.555 36.5986 200.284 36.0252C200.013 35.4518 199.803 34.9287 199.654 34.4559C199.394 34.6613 199.123 34.9321 198.84 35.2683C198.582 35.5994 198.363 35.998 198.183 36.4639C197.998 36.9057 197.859 37.3882 197.767 37.9115C197.699 38.4297 197.725 38.9785 197.846 39.558ZM211.286 30.8171C211.278 31.4993 211.284 32.254 211.306 33.081C211.322 33.884 211.37 34.6552 211.449 35.3947C211.552 36.1291 211.688 36.7811 211.857 37.3505C212.05 37.9149 212.293 38.2926 212.585 38.4836C213.011 38.4703 213.446 38.203 213.892 37.6816C214.332 37.136 214.738 36.4843 215.109 35.7265C215.48 34.9687 215.792 34.1726 216.046 33.3384C216.295 32.48 216.444 31.7434 216.492 31.1286C216.528 30.8187 216.55 30.4993 216.556 30.1702C216.563 29.8412 216.532 29.5077 216.461 29.1696C216.421 28.9765 216.504 28.7702 216.71 28.5507C216.935 28.3021 217.13 28.1481 217.294 28.0886C217.409 28.0393 217.547 28.0357 217.707 28.0779C217.891 28.115 218.059 28.1934 218.21 28.3131C218.38 28.4035 218.533 28.5353 218.67 28.7083C218.826 28.8521 218.924 29.0206 218.965 29.2137C219.164 29.928 219.403 30.7097 219.681 31.5588C219.959 32.4079 220.25 33.2544 220.552 34.0985C220.878 34.9375 221.2 35.7523 221.516 36.543C221.832 37.3337 222.131 38.0399 222.412 38.6616C222.54 38.9121 222.53 39.229 222.384 39.6125C222.237 39.9959 222.038 40.2515 221.788 40.3794C221.581 40.4731 221.346 40.4969 221.085 40.4507C220.847 40.3995 220.638 40.2416 220.456 39.9771C220.265 39.6643 220.059 39.279 219.837 38.8213C219.635 38.3344 219.43 37.8354 219.222 37.3244C219.034 36.7842 218.853 36.2802 218.68 35.8124C218.501 35.3204 218.365 34.908 218.27 34.575C218.044 35.3025 217.748 36.0573 217.382 36.8393C217.035 37.5921 216.63 38.3066 216.167 38.983C215.722 39.6302 215.219 40.1763 214.657 40.6212C214.114 41.037 213.508 41.2768 212.841 41.3405C211.85 41.4215 210.925 40.6698 210.065 39.0855C209.73 38.4497 209.478 37.7214 209.306 36.9004C209.159 36.0744 209.05 35.2529 208.98 34.4359C208.93 33.5898 208.901 32.7894 208.895 32.0347C208.913 31.2751 208.934 30.6532 208.959 30.1693C208.967 29.966 209.028 29.7768 209.143 29.6017C209.252 29.4024 209.409 29.3068 209.612 29.3147C209.989 29.3115 210.361 29.4608 210.726 29.7624C211.116 30.0591 211.302 30.4106 211.286 30.8171ZM235.379 25.068C235.723 26.3567 236.071 27.6576 236.42 28.9705C236.794 30.2783 237.093 31.5892 237.317 32.9032C237.536 34.193 237.666 35.4763 237.705 36.7531C237.769 38.0249 237.678 39.2786 237.433 40.5143C237.182 41.7259 236.746 42.9003 236.127 44.0376C235.532 45.1698 234.699 46.2508 233.629 47.2806C233.461 47.4417 233.259 47.5595 233.023 47.6341C232.811 47.7036 232.591 47.7369 232.363 47.734C232.141 47.7552 231.935 47.7352 231.746 47.6739C231.562 47.6368 231.43 47.5508 231.352 47.416C231.234 47.2138 231.22 46.9648 231.309 46.6689C231.399 46.3731 231.582 46.045 231.86 45.6846C232.756 44.666 233.473 43.6343 234.011 42.5896C234.548 41.545 234.926 40.4581 235.144 39.3291C235.362 38.2001 235.405 37.0193 235.274 35.7868C235.161 34.5251 234.881 33.185 234.434 31.7665C234.22 32.1892 233.96 32.6341 233.654 33.1011C233.349 33.5681 233.011 34.0039 232.642 34.4086C232.268 34.7891 231.874 35.1359 231.461 35.449C231.043 35.738 230.628 35.9253 230.218 36.011C229.88 36.0816 229.526 36.0798 229.158 36.0055C228.79 35.9312 228.394 35.7241 227.97 35.3842C227.478 34.9579 227.009 34.4635 226.564 33.9013C226.138 33.3099 225.754 32.735 225.41 32.1768C225.067 31.6185 224.772 31.113 224.527 30.6604C224.305 30.2027 224.162 29.8797 224.098 29.6916C223.999 29.4602 223.951 29.2309 223.954 29.0035C223.957 28.7761 224.086 28.6105 224.342 28.5067C224.689 28.3587 225.032 28.3122 225.371 28.3674C225.71 28.4226 225.968 28.5704 226.144 28.8108C226.296 29.0562 226.514 29.4389 226.799 29.959C227.084 30.4791 227.406 30.9916 227.763 31.4965C228.115 31.9773 228.467 32.3952 228.819 32.7502C229.194 33.1002 229.539 33.2424 229.853 33.1768C230.215 33.1012 230.6 32.8319 231.007 32.3688C231.438 31.9008 231.823 31.3291 232.161 30.6538C232.498 29.9785 232.751 29.2579 232.919 28.4921C233.106 27.6972 233.128 26.9617 232.987 26.2856C232.957 26.1407 232.946 25.9666 232.954 25.7634C232.962 25.5601 232.996 25.3639 233.058 25.1747C233.114 24.9614 233.19 24.7818 233.285 24.6358C233.4 24.4607 233.527 24.3459 233.667 24.2915C234.043 24.1626 234.404 24.2006 234.749 24.4057C235.113 24.5816 235.323 24.8024 235.379 25.068ZM244.274 15.3106C244.279 16.4184 244.269 17.5166 244.244 18.6053C244.244 19.689 244.255 20.7701 244.279 21.8487C244.303 22.9273 244.374 23.9959 244.495 25.0543C244.615 26.1127 244.82 27.1535 245.109 28.1767C245.213 28.4322 245.217 28.6958 245.123 28.9675C245.053 29.2342 244.94 29.4214 244.787 29.5291C244.296 29.8332 243.882 29.7811 243.544 29.3727C242.997 28.2018 242.586 27.0152 242.31 25.813C242.058 24.6057 241.892 23.3928 241.814 22.1744C241.76 20.9509 241.757 19.7294 241.805 18.5099C241.872 17.2612 241.941 16.0246 242.013 14.8C242.033 14.2919 242.171 13.986 242.426 13.8822C242.682 13.7784 242.94 13.7496 243.202 13.7958C243.589 13.8409 243.869 14.0345 244.041 14.3765C244.214 14.7185 244.291 15.0299 244.274 15.3106ZM246.895 35.0988C246.95 35.3644 246.989 35.7342 247.013 36.2081C247.055 36.6528 247.044 37.0834 246.98 37.5C246.94 37.9116 246.825 38.2633 246.634 38.5551C246.467 38.842 246.199 38.9483 245.831 38.874C245.612 38.7936 245.371 38.6045 245.108 38.3068C244.844 38.0091 244.694 37.7129 244.657 37.4181C244.585 36.8285 244.587 36.2359 244.664 35.6402C244.741 35.0445 244.924 34.6535 245.213 34.4672C245.348 34.3887 245.505 34.3559 245.684 34.3689C245.887 34.3769 246.074 34.4261 246.244 34.5165C246.409 34.5829 246.555 34.6784 246.682 34.8031C246.803 34.9037 246.874 35.0022 246.895 35.0988Z" fill="white"/>
<path d="M115.74 62.7003C66.861 101.002 50.6991 88.2341 21.8873 153.3M21.8873 153.3L22.8157 107.618M21.8873 153.3L57.5164 138.963" stroke="white" stroke-width="3"/>
</svg>
