<svg xmlns="http://www.w3.org/2000/svg" width="146" height="55" fill="none" xmlns:v="https://vecta.io/nano"><path opacity=".53" d="M17.66 34.232c-2.505.442-4.843 1.175-7.013 2.2s-4.276 2.223-6.316 3.597c-.528.348-.979.425-1.351.231-.349-.199-.553-.431-.613-.695.065-.495.281-.936.648-1.323 4.385-3.525 9.114-5.535 14.187-6.029.257.017.49.154.7.41.228.226.341.441.336.645a2.09 2.09 0 0 1-.077.663c-.063.166-.23.267-.5.303zm-2.264 13.756c.06.264.018.527-.125.787-.125.231-.314.4-.568.508-.465.181-.796.168-.995-.04s-.346-.465-.441-.772l-1.247-4.991c-.406-1.678-.861-3.346-1.364-5.002-.022-.096-.058-.202-.11-.316-.057-.139-.087-.271-.09-.397-.009-.15.012-.281.062-.394.074-.118.202-.223.384-.315.531-.222.95-.216 1.256.018.301.21.481.447.541.712.586 1.688 1.097 3.381 1.533 5.078a93.19 93.19 0 0 1 1.164 5.124zm8.648-16.913c.131.577.267 1.23.406 1.956l.508 2.237a78 78 0 0 1 .577 2.373l.605 2.329c.131-.536.314-1.07.546-1.604.227-.558.505-1.063.832-1.517.351-.459.73-.849 1.138-1.169.432-.326.924-.551 1.478-.677a2.45 2.45 0 0 1 1.719.217c.569.276 1.095.7 1.579 1.273.503.544.965 1.185 1.385 1.924a19.59 19.59 0 0 1 1.118 2.25c.349.755.644 1.498.885 2.227l.607 1.835c.087.385.062.719-.076 1.004s-.339.456-.604.517c-.192.044-.46-.022-.803-.197-.325-.205-.588-.474-.79-.807-.138-.272-.305-.677-.503-1.214l-.654-1.711a28.39 28.39 0 0 0-.803-1.867c-.292-.617-.603-1.153-.935-1.609-.313-.486-.646-.84-1-1.063s-.715-.255-1.084-.095c-.574.257-1.008.798-1.301 1.623-.269.82-.468 1.725-.597 2.716-.105.985-.16 1.971-.163 2.958l.083 2.372c.002.455-.062.785-.192.992a.71.71 0 0 1-.456.331c-.192.044-.395-.011-.607-.166-.188-.16-.384-.355-.589-.587-.186-.261-.36-.525-.521-.792-.167-.291-.287-.542-.361-.753l-1.133-3.651-1-3.567-.872-3.672c-.29-1.275-.574-2.639-.854-4.094-.273-1.203.037-1.842.93-1.919.3-.017.601.142.905.477a2.33 2.33 0 0 1 .595 1.117zm17.949 1.501a58.68 58.68 0 0 0 .059 2.263c.031.803.092 1.573.183 2.311.116.733.263 1.382.442 1.948.203.561.453.934.748 1.12.425-.021.856-.296 1.292-.825.431-.553.825-1.212 1.183-1.976a16.08 16.08 0 0 0 .896-2.404c.234-.863.37-1.602.407-2.217.031-.31.047-.63.048-.959s-.036-.662-.113-.999c-.044-.192.036-.4.238-.623.221-.252.413-.41.576-.472a.63.63 0 0 1 .413-.018c.185.034.354.109.507.226a1.47 1.47 0 0 1 .467.387c.158.141.26.308.303.5.212.711.464 1.488.757 2.332l.915 2.524 1.007 2.427a52.56 52.56 0 0 0 .933 2.103c.132.248.128.565-.012.951s-.334.645-.582.777c-.206.097-.44.125-.702.084-.238-.047-.45-.201-.636-.462-.197-.309-.41-.691-.639-1.145l-.641-1.486-.569-1.502c-.187-.489-.331-.899-.431-1.23a17.87 17.87 0 0 1-.848 2.279 14.56 14.56 0 0 1-1.178 2.165c-.433.655-.927 1.21-1.481 1.664-.536.425-1.137.676-1.802.751-.989.098-1.928-.637-2.815-2.206-.345-.63-.611-1.354-.797-2.172-.162-.823-.285-1.643-.369-2.458a46.99 46.99 0 0 1-.127-2.399l.032-1.866c.004-.203.062-.394.174-.571.106-.201.261-.299.464-.295.377-.01.751.133 1.122.428.395.29.588.638.579 1.045zm19.681-4.583l-.316-.725c-.103-.23-.259-.359-.467-.387-.436-.027-.872.059-1.307.259s-.821.452-1.156.756c-.341.28-.614.582-.819.907-.21.301-.305.55-.285.748.01.377.185.704.526.981s.802.526 1.384.748l2.986.953c1.034.322 1.927.688 2.678 1.099s1.311.929 1.681 1.553c.388.595.509 1.351.364 2.27-.117.71-.49 1.351-1.119 1.923s-1.349 1.078-2.16 1.515a20.16 20.16 0 0 1-2.491 1.059c-.85.269-1.575.471-2.176.608-.144.033-.336.026-.574-.021-.22-.077-.442-.165-.667-.266a8.58 8.58 0 0 1-.567-.326c-.158-.141-.251-.272-.279-.392-.098-.433.026-.777.372-1.033s.724-.43 1.133-.523c.577-.131 1.185-.294 1.824-.49.657-.225 1.273-.466 1.847-.723a9.41 9.41 0 0 0 1.501-.91c.432-.326.706-.679.822-1.059.103-.327-.082-.639-.554-.936-.454-.327-1.042-.636-1.766-.927-.7-.297-1.457-.567-2.271-.812-.79-.251-1.477-.487-2.058-.709s-1.105-.521-1.569-.896c-.47-.399-.832-.937-1.087-1.612-.166-.62-.17-1.251-.013-1.894s.416-1.233.774-1.769c.377-.566.837-1.05 1.378-1.451s1.113-.67 1.714-.807c1.045-.187 1.965-.092 2.758.284.788.352 1.357 1.02 1.707 2.003.076.337.079.627.008.871-.047.238-.197.412-.451.52-.326.125-.611.151-.854.08-.225-.101-.374-.256-.448-.467zm20.34-.18c-.326.124-.731.179-1.215.162-.46-.022-.829-.254-1.107-.697-.127-.224-.191-.45-.192-.677-.007-.252.208-.477.643-.677a20.47 20.47 0 0 1 1.314-.564 34.06 34.06 0 0 1 1.458-.597l-2.253-3.738c-.759-1.447-1.107-2.759-1.046-3.936s.771-2.173 2.129-2.988c.558-.329 1.131-.535 1.719-.618a4.69 4.69 0 0 1 1.802.084 5.67 5.67 0 0 1 1.681.719 5.3 5.3 0 0 1 1.391 1.278c.156.243.259.472.308.689.068.187.037.384-.094.59-.186.295-.426.463-.72.505-.3.018-.511-.023-.635-.121-.277-.216-.577-.425-.902-.63-.306-.234-.625-.414-.958-.541a2.6 2.6 0 0 0-.972-.272c-.34-.049-.685-.009-1.035.121-.163.062-.348.193-.556.392-.184.194-.324.466-.422.817-.103.327-.124.736-.063 1.228.085.486.306 1.069.662 1.747.305.563.645 1.169 1.02 1.817s.782 1.327 1.221 2.037c1.127-.383 2.177-.659 3.151-.829.54-.072 1.055-.088 1.545-.047s.912.172 1.266.395c.127.224.161.431.103.622-.064.166-.178.331-.343.495-.147.134-.335.253-.564.356a6.27 6.27 0 0 1-.625.256c-.47.157-.962.332-1.474.524l-1.627.521a97.19 97.19 0 0 1 1.751 2.865c.555.886 1.003 1.631 1.343 2.237.178.339.278.721.298 1.147A9.79 9.79 0 0 1 90 33.74c-.067.597-.206 1.097-.418 1.499s-.5.581-.864.538c-.292-.06-.496-.178-.612-.354s-.188-.438-.216-.786a9.54 9.54 0 0 0-.19-1.171c-.087-.385-.191-.728-.31-1.03-.101-.331-.214-.609-.341-.833-.108-.254-.185-.426-.231-.517l-2.515-4.058-1.122.406c-.379.111-.768.238-1.166.379zm20.869-11.872c.249.652.485 1.357.708 2.116a35.57 35.57 0 0 1 .661 2.24 36.82 36.82 0 0 1 .58 2.221c.164.722.299 1.374.406 1.957.89.354 1.454.72 1.691 1.096.261.371.367.726.318 1.066-.046.466-.259.754-.638.866-.361.082-.812.045-1.353-.11-.282.317-.607.669-.974 1.056-.373.363-.77.731-1.191 1.105-.427.35-.859.675-1.296.977s-.852.535-1.245.7c-.742.295-1.473.309-2.191.042-.694-.272-1.242-.793-1.645-1.562-.27-.52-.434-1.077-.493-1.671a4.79 4.79 0 0 1 .156-1.819c.163-.619.436-1.199.819-1.742a5.7 5.7 0 0 1 1.539-1.412 3.15 3.15 0 0 1 .645-.336 4.19 4.19 0 0 1 .93-.249 3.06 3.06 0 0 1 1.051-.049c.364.044.723.177 1.078.4a26.96 26.96 0 0 0-.34-1.327 31.45 31.45 0 0 0-.38-1.507 22.78 22.78 0 0 0-.428-1.383c-.128-.452-.251-.828-.37-1.13-.13-.35-.324-.534-.581-.551-.238-.047-.512.028-.821.224-.534.324-1.123.849-1.767 1.577s-1.244 1.484-1.799 2.268c-.167.266-.398.419-.692.461a1.11 1.11 0 0 1-.759-.169 1.08 1.08 0 0 1-.472-.576c-.084-.259-.051-.558.1-.895.311-.526.667-1.075 1.068-1.646s.838-1.101 1.309-1.587a9.33 9.33 0 0 1 1.483-1.323 5.15 5.15 0 0 1 1.642-.79c.836-.215 1.529-.17 2.079.135a2.44 2.44 0 0 1 1.174 1.327zm-2.424 8.708c-.296.143-.597.376-.903.698a4.42 4.42 0 0 0-.75 1.043c-.194.373-.316.78-.367 1.222a1.94 1.94 0 0 0 .262 1.155.56.56 0 0 0 .362.259.85.85 0 0 0 .549-.087c.55-.251 1.148-.627 1.793-1.128.664-.53 1.166-1.049 1.506-1.556-.033-.144-.146-.308-.34-.492a4.66 4.66 0 0 0-.66-.571c-.247-.197-.51-.352-.789-.466-.255-.119-.476-.145-.663-.077zm18.627-11.439l-1.199 1.069c-.397.368-.795.788-1.195 1.258-.38.441-.732.95-1.056 1.53-.305.55-.552 1.188-.742 1.914-.273 1.023-.385 2.035-.335 3.036a23.1 23.1 0 0 0 .306 2.852c.099.433.092.902-.021 1.409-.094.477-.322.756-.683.838-.457.104-.881-.04-1.274-.431-.374-.421-.658-.837-.852-1.248a68.81 68.81 0 0 1-2.158-4.822c-.647-1.624-1.255-3.244-1.824-4.86-.077-.337-.03-.575.141-.715.195-.145.427-.236.697-.272.294-.042.587-.032.879.028s.492.217.6.471c.299.868.632 1.779 1 2.732.363.929.696 1.726.999 2.391-.09-.84-.006-1.694.253-2.562a9.86 9.86 0 0 1 1.112-2.453 10.29 10.29 0 0 1 1.804-2.079c.72-.619 1.484-1.096 2.293-1.431.35-.13.651-.198.902-.205s.439.039.563.138.179.288.167.569c.012.276-.114.557-.377.845zm8.951 10.45c.317.839.068 1.414-.747 1.725-.422.146-.81.108-1.164-.115a2.09 2.09 0 0 1-.743-.932 2.86 2.86 0 0 1-.214-1.279c.051-.442.264-.73.638-.866.464-.181.914-.094 1.349.263.43.332.724.734.881 1.204zm8.451-1.919c.317.839.068 1.414-.747 1.725-.422.146-.81.108-1.164-.115a2.09 2.09 0 0 1-.743-.932 2.86 2.86 0 0 1-.214-1.279c.051-.442.264-.73.638-.866.464-.181.914-.094 1.349.263a2.52 2.52 0 0 1 .881 1.204zm8.451-1.919c.317.839.068 1.414-.747 1.725-.422.146-.81.108-1.164-.115a2.09 2.09 0 0 1-.743-.932c-.17-.417-.242-.843-.215-1.279.052-.442.265-.73.639-.866.464-.181.914-.094 1.349.263a2.52 2.52 0 0 1 .881 1.204z" fill="#441d4f"/></svg>